# MagicaVoxel @ Ephtracy

# group
o 

# material
mtllib BirdWhale.mtl
usemtl palette

# normals
vn -1 0 0
vn 1 0 0
vn 0 0 1
vn 0 0 -1
vn 0 -1 0
vn 0 1 0

# texcoords
vt 0.00195312 0.5
vt 0.0175781 0.5
vt 0.0957031 0.5
vt 0.865234 0.5
vt 0.994141 0.5

# verts
v -1 1.4 0.5
v -1 1.4 0.0999999
v -1 1.5 0.5
v -1 1.5 0.0999999
v -0.8 1.3 0.5
v -0.8 1.3 0.0999999
v -0.8 1.4 0.5
v -0.8 1.4 0.0999999
v -0.6 0.9 0.4
v -0.6 0.9 -5.96046e-08
v -0.6 1 0.5
v -0.6 1 0.4
v -0.6 1 -5.96046e-08
v -0.6 1 -0.3
v -0.6 1.1 0.6
v -0.6 1.1 0.5
v -0.6 1.1 -5.96046e-08
v -0.6 1.1 -0.3
v -0.6 1.1 -0.4
v -0.6 1.2 -0.3
v -0.6 1.2 -0.4
v -0.6 1.3 0.6
v -0.6 1.3 0.5
v -0.6 1.3 0.0999999
v -0.6 1.3 -0.3
v -0.5 0.9 0.5
v -0.5 0.9 0.4
v -0.5 0.9 -5.96046e-08
v -0.5 0.9 -0.1
v -0.5 1 0.6
v -0.5 1 0.5
v -0.5 1 0.4
v -0.5 1 -5.96046e-08
v -0.5 1 -0.1
v -0.5 1.1 0.6
v -0.5 1.1 0.5
v -0.5 1.2 -0.3
v -0.5 1.2 -0.4
v -0.5 1.3 0.0999999
v -0.5 1.3 -0.1
v -0.5 1.3 -0.2
v -0.5 1.3 -0.3
v -0.5 1.3 -0.4
v -0.5 1.4 0.4
v -0.5 1.4 0.0999999
v -0.5 1.4 -0.1
v -0.5 1.4 -0.2
v -0.5 1.5 0.4
v -0.5 1.5 0.0999999
v -0.4 0.9 0.6
v -0.4 0.9 0.5
v -0.4 1 0.6
v -0.4 1 0.5
v -0.4 1.3 0.6
v -0.4 1.3 0.5
v -0.4 1.4 0.6
v -0.4 1.4 0.5
v -0.0999999 1.3 -5.96046e-08
v -0.0999999 1.3 -0.1
v -0.0999999 1.4 0.4
v -0.0999999 1.4 0.0999999
v -0.0999999 1.4 -5.96046e-08
v -0.0999999 1.4 -0.1
v -0.0999999 1.5 0.4
v -0.0999999 1.5 0.0999999
v 0.1 1.1 -0.1
v 0.1 1.1 -0.2
v 0.1 1.3 -0.1
v 0.1 1.3 -0.2
v 0.2 0.9 0.0999999
v 0.2 0.9 -5.96046e-08
v 0.2 1 0.0999999
v 0.2 1 -5.96046e-08
v 0.2 1 -0.1
v 0.2 1 -0.2
v 0.2 1.1 -0.1
v 0.2 1.1 -0.2
v 0.2 1.1 -0.3
v 0.2 1.3 -5.96046e-08
v 0.2 1.3 -0.1
v 0.2 1.3 -0.2
v 0.2 1.3 -0.3
v 0.2 1.4 -5.96046e-08
v 0.2 1.4 -0.1
v 0.3 0.9 -5.96046e-08
v 0.3 0.9 -0.1
v 0.3 1 -5.96046e-08
v 0.3 1 -0.1
v 0.3 1 -0.2
v 0.3 1 -0.3
v 0.3 1.1 -0.2
v 0.3 1.1 -0.3
v 0.3 1.1 -0.4
v 0.3 1.3 -0.1
v 0.3 1.3 -0.2
v 0.3 1.3 -0.3
v 0.3 1.3 -0.4
v 0.3 1.4 0.4
v 0.3 1.4 0.0999999
v 0.3 1.4 -0.1
v 0.3 1.4 -0.2
v 0.3 1.5 0.4
v 0.3 1.5 0.0999999
v 0.6 1.4 0.5
v 0.6 1.4 0.0999999
v 0.6 1.5 0.5
v 0.6 1.5 0.0999999
v -0.6 1.4 0.5
v -0.6 1.4 0.0999999
v -0.6 1.5 0.5
v -0.6 1.5 0.0999999
v -0.3 0.9 -5.96046e-08
v -0.3 0.9 -0.1
v -0.3 1 -5.96046e-08
v -0.3 1 -0.1
v -0.3 1 -0.2
v -0.3 1 -0.3
v -0.3 1.1 -0.2
v -0.3 1.1 -0.3
v -0.3 1.1 -0.4
v -0.3 1.3 -0.1
v -0.3 1.3 -0.2
v -0.3 1.3 -0.3
v -0.3 1.3 -0.4
v -0.3 1.4 0.4
v -0.3 1.4 0.0999999
v -0.3 1.4 -0.1
v -0.3 1.4 -0.2
v -0.3 1.5 0.4
v -0.3 1.5 0.0999999
v -0.2 0.9 0.0999999
v -0.2 0.9 -5.96046e-08
v -0.2 1 0.0999999
v -0.2 1 -5.96046e-08
v -0.2 1 -0.1
v -0.2 1 -0.2
v -0.2 1.1 -0.1
v -0.2 1.1 -0.2
v -0.2 1.1 -0.3
v -0.2 1.3 -5.96046e-08
v -0.2 1.3 -0.1
v -0.2 1.3 -0.2
v -0.2 1.3 -0.3
v -0.2 1.4 -5.96046e-08
v -0.2 1.4 -0.1
v -0.0999999 1.1 -0.1
v -0.0999999 1.1 -0.2
v -0.0999999 1.3 -0.1
v -0.0999999 1.3 -0.2
v 0.1 1.3 -5.96046e-08
v 0.1 1.3 -0.1
v 0.1 1.4 0.4
v 0.1 1.4 0.0999999
v 0.1 1.4 -5.96046e-08
v 0.1 1.4 -0.1
v 0.1 1.5 0.4
v 0.1 1.5 0.0999999
v 0.4 0.9 0.6
v 0.4 0.9 0.5
v 0.4 1 0.6
v 0.4 1 0.5
v 0.4 1.3 0.6
v 0.4 1.3 0.5
v 0.4 1.4 0.6
v 0.4 1.4 0.5
v 0.5 0.9 0.5
v 0.5 0.9 0.4
v 0.5 0.9 -5.96046e-08
v 0.5 0.9 -0.1
v 0.5 1 0.6
v 0.5 1 0.5
v 0.5 1 0.4
v 0.5 1 -5.96046e-08
v 0.5 1 -0.1
v 0.5 1.1 0.6
v 0.5 1.1 0.5
v 0.5 1.2 -0.3
v 0.5 1.2 -0.4
v 0.5 1.3 0.0999999
v 0.5 1.3 -0.1
v 0.5 1.3 -0.2
v 0.5 1.3 -0.3
v 0.5 1.3 -0.4
v 0.5 1.4 0.4
v 0.5 1.4 0.0999999
v 0.5 1.4 -0.1
v 0.5 1.4 -0.2
v 0.5 1.5 0.4
v 0.5 1.5 0.0999999
v 0.6 0.9 0.4
v 0.6 0.9 -5.96046e-08
v 0.6 1 0.5
v 0.6 1 0.4
v 0.6 1 -5.96046e-08
v 0.6 1 -0.3
v 0.6 1.1 0.6
v 0.6 1.1 0.5
v 0.6 1.1 -5.96046e-08
v 0.6 1.1 -0.3
v 0.6 1.1 -0.4
v 0.6 1.2 -0.3
v 0.6 1.2 -0.4
v 0.6 1.3 0.6
v 0.6 1.3 0.5
v 0.6 1.3 0.0999999
v 0.6 1.3 -0.3
v 0.8 1.3 0.5
v 0.8 1.3 0.0999999
v 0.8 1.4 0.5
v 0.8 1.4 0.0999999
v 1 1.4 0.5
v 1 1.4 0.0999999
v 1 1.5 0.5
v 1 1.5 0.0999999
v -0.6 1.1 0.6
v -0.6 1.3 0.6
v -0.5 1 0.6
v -0.5 1.1 0.6
v -0.4 0.9 0.6
v -0.4 1 0.6
v -0.4 1.3 0.6
v -0.4 1.4 0.6
v -0.3 1.2 0.6
v -0.3 1.3 0.6
v -0.2 1.1 0.6
v -0.2 1.2 0.6
v -0.2 1.3 0.6
v -0.0999999 1 0.6
v -0.0999999 1.1 0.6
v 1.19209e-07 1 0.6
v 1.19209e-07 1.1 0.6
v 0.1 1 0.6
v 0.1 1.1 0.6
v 0.2 1.1 0.6
v 0.2 1.2 0.6
v 0.2 1.3 0.6
v 0.3 1.2 0.6
v 0.3 1.3 0.6
v 0.4 0.9 0.6
v 0.4 1 0.6
v 0.4 1.3 0.6
v 0.4 1.4 0.6
v 0.5 1 0.6
v 0.5 1.1 0.6
v 0.6 1.1 0.6
v 0.6 1.3 0.6
v -1 1.4 0.5
v -1 1.5 0.5
v -0.8 1.3 0.5
v -0.8 1.4 0.5
v -0.6 1 0.5
v -0.6 1.1 0.5
v -0.6 1.3 0.5
v -0.6 1.4 0.5
v -0.6 1.5 0.5
v -0.5 0.9 0.5
v -0.5 1 0.5
v -0.5 1.1 0.5
v -0.4 0.9 0.5
v -0.4 1 0.5
v -0.4 1.3 0.5
v -0.4 1.4 0.5
v 0.4 0.9 0.5
v 0.4 1 0.5
v 0.4 1.3 0.5
v 0.4 1.4 0.5
v 0.5 0.9 0.5
v 0.5 1 0.5
v 0.5 1.1 0.5
v 0.6 1 0.5
v 0.6 1.1 0.5
v 0.6 1.3 0.5
v 0.6 1.4 0.5
v 0.6 1.5 0.5
v 0.8 1.3 0.5
v 0.8 1.4 0.5
v 1 1.4 0.5
v 1 1.5 0.5
v -0.6 0.9 0.4
v -0.6 1 0.4
v -0.5 0.9 0.4
v -0.5 1 0.4
v -0.5 1.4 0.4
v -0.5 1.5 0.4
v -0.3 1.4 0.4
v -0.3 1.5 0.4
v -0.0999999 1.4 0.4
v -0.0999999 1.5 0.4
v 0.1 1.4 0.4
v 0.1 1.5 0.4
v 0.3 1.4 0.4
v 0.3 1.5 0.4
v 0.5 0.9 0.4
v 0.5 1 0.4
v 0.5 1.4 0.4
v 0.5 1.5 0.4
v 0.6 0.9 0.4
v 0.6 1 0.4
v -1 1.4 0.0999999
v -1 1.5 0.0999999
v -0.8 1.3 0.0999999
v -0.8 1.4 0.0999999
v -0.6 1.3 0.0999999
v -0.6 1.4 0.0999999
v -0.6 1.5 0.0999999
v -0.5 1.3 0.0999999
v -0.5 1.4 0.0999999
v -0.5 1.5 0.0999999
v -0.3 1.4 0.0999999
v -0.3 1.5 0.0999999
v -0.2 0.9 0.0999999
v -0.2 1 0.0999999
v -0.0999999 1.4 0.0999999
v -0.0999999 1.5 0.0999999
v 0.1 1.4 0.0999999
v 0.1 1.5 0.0999999
v 0.2 0.9 0.0999999
v 0.2 1 0.0999999
v 0.3 1.4 0.0999999
v 0.3 1.5 0.0999999
v 0.5 1.3 0.0999999
v 0.5 1.4 0.0999999
v 0.5 1.5 0.0999999
v 0.6 1.3 0.0999999
v 0.6 1.4 0.0999999
v 0.6 1.5 0.0999999
v 0.8 1.3 0.0999999
v 0.8 1.4 0.0999999
v 1 1.4 0.0999999
v 1 1.5 0.0999999
v -0.6 0.9 -5.96046e-08
v -0.6 1 -5.96046e-08
v -0.5 0.9 -5.96046e-08
v -0.5 1 -5.96046e-08
v -0.3 0.9 -5.96046e-08
v -0.3 1 -5.96046e-08
v -0.2 0.9 -5.96046e-08
v -0.2 1 -5.96046e-08
v -0.2 1.3 -5.96046e-08
v -0.2 1.4 -5.96046e-08
v -0.0999999 1.3 -5.96046e-08
v -0.0999999 1.4 -5.96046e-08
v 0.1 1.3 -5.96046e-08
v 0.1 1.4 -5.96046e-08
v 0.2 0.9 -5.96046e-08
v 0.2 1 -5.96046e-08
v 0.2 1.3 -5.96046e-08
v 0.2 1.4 -5.96046e-08
v 0.3 0.9 -5.96046e-08
v 0.3 1 -5.96046e-08
v 0.5 0.9 -5.96046e-08
v 0.5 1 -5.96046e-08
v 0.6 0.9 -5.96046e-08
v 0.6 1 -5.96046e-08
v -0.5 0.9 -0.1
v -0.5 1 -0.1
v -0.3 0.9 -0.1
v -0.3 1 -0.1
v -0.3 1.3 -0.1
v -0.3 1.4 -0.1
v -0.2 1 -0.1
v -0.2 1.1 -0.1
v -0.2 1.3 -0.1
v -0.2 1.4 -0.1
v -0.0999999 1.1 -0.1
v -0.0999999 1.3 -0.1
v -0.0999999 1.4 -0.1
v 0.1 1.1 -0.1
v 0.1 1.3 -0.1
v 0.1 1.4 -0.1
v 0.2 1 -0.1
v 0.2 1.1 -0.1
v 0.2 1.3 -0.1
v 0.2 1.4 -0.1
v 0.3 0.9 -0.1
v 0.3 1 -0.1
v 0.3 1.3 -0.1
v 0.3 1.4 -0.1
v 0.5 0.9 -0.1
v 0.5 1 -0.1
v -0.5 1.3 -0.2
v -0.5 1.4 -0.2
v -0.3 1 -0.2
v -0.3 1.1 -0.2
v -0.3 1.3 -0.2
v -0.3 1.4 -0.2
v -0.2 1 -0.2
v -0.2 1.1 -0.2
v -0.2 1.3 -0.2
v -0.0999999 1.1 -0.2
v -0.0999999 1.3 -0.2
v 0.1 1.1 -0.2
v 0.1 1.3 -0.2
v 0.2 1 -0.2
v 0.2 1.1 -0.2
v 0.2 1.3 -0.2
v 0.3 1 -0.2
v 0.3 1.1 -0.2
v 0.3 1.3 -0.2
v 0.3 1.4 -0.2
v 0.5 1.3 -0.2
v 0.5 1.4 -0.2
v -0.6 1 -0.3
v -0.6 1.1 -0.3
v -0.6 1.2 -0.3
v -0.6 1.3 -0.3
v -0.5 1.2 -0.3
v -0.5 1.3 -0.3
v -0.3 1 -0.3
v -0.3 1.1 -0.3
v -0.3 1.3 -0.3
v -0.2 1.1 -0.3
v -0.2 1.3 -0.3
v 0.2 1.1 -0.3
v 0.2 1.3 -0.3
v 0.3 1 -0.3
v 0.3 1.1 -0.3
v 0.3 1.3 -0.3
v 0.5 1.2 -0.3
v 0.5 1.3 -0.3
v 0.6 1 -0.3
v 0.6 1.1 -0.3
v 0.6 1.2 -0.3
v 0.6 1.3 -0.3
v -0.6 1.1 -0.4
v -0.6 1.2 -0.4
v -0.5 1.2 -0.4
v -0.5 1.3 -0.4
v -0.3 1.1 -0.4
v -0.3 1.3 -0.4
v 0.3 1.1 -0.4
v 0.3 1.3 -0.4
v 0.5 1.2 -0.4
v 0.5 1.3 -0.4
v 0.6 1.1 -0.4
v 0.6 1.2 -0.4
v -0.4 0.9 0.6
v 0.4 0.9 0.6
v -0.5 0.9 0.5
v -0.4 0.9 0.5
v 0.4 0.9 0.5
v 0.5 0.9 0.5
v -0.6 0.9 0.4
v -0.5 0.9 0.4
v 0.5 0.9 0.4
v 0.6 0.9 0.4
v -0.2 0.9 0.0999999
v 0.2 0.9 0.0999999
v -0.6 0.9 -5.96046e-08
v -0.5 0.9 -5.96046e-08
v -0.3 0.9 -5.96046e-08
v -0.2 0.9 -5.96046e-08
v 0.2 0.9 -5.96046e-08
v 0.3 0.9 -5.96046e-08
v 0.5 0.9 -5.96046e-08
v 0.6 0.9 -5.96046e-08
v -0.5 0.9 -0.1
v -0.3 0.9 -0.1
v 0.3 0.9 -0.1
v 0.5 0.9 -0.1
v -0.5 1 0.6
v -0.4 1 0.6
v 0.4 1 0.6
v 0.5 1 0.6
v -0.6 1 0.5
v -0.5 1 0.5
v -0.4 1 0.5
v 0.4 1 0.5
v 0.5 1 0.5
v 0.6 1 0.5
v -0.6 1 0.4
v -0.5 1 0.4
v 0.5 1 0.4
v 0.6 1 0.4
v -0.2 1 0.0999999
v 0.2 1 0.0999999
v -0.6 1 -5.96046e-08
v -0.5 1 -5.96046e-08
v -0.3 1 -5.96046e-08
v -0.2 1 -5.96046e-08
v 0.2 1 -5.96046e-08
v 0.3 1 -5.96046e-08
v 0.5 1 -5.96046e-08
v 0.6 1 -5.96046e-08
v -0.5 1 -0.1
v -0.3 1 -0.1
v -0.2 1 -0.1
v 0.2 1 -0.1
v 0.3 1 -0.1
v 0.5 1 -0.1
v -0.3 1 -0.2
v -0.2 1 -0.2
v 0.2 1 -0.2
v 0.3 1 -0.2
v -0.6 1 -0.3
v -0.3 1 -0.3
v 0.3 1 -0.3
v 0.6 1 -0.3
v -0.6 1.1 0.6
v -0.5 1.1 0.6
v 0.5 1.1 0.6
v 0.6 1.1 0.6
v -0.6 1.1 0.5
v -0.5 1.1 0.5
v 0.5 1.1 0.5
v 0.6 1.1 0.5
v -0.2 1.1 -0.1
v -0.0999999 1.1 -0.1
v 0.1 1.1 -0.1
v 0.2 1.1 -0.1
v -0.3 1.1 -0.2
v -0.2 1.1 -0.2
v -0.0999999 1.1 -0.2
v 0.1 1.1 -0.2
v 0.2 1.1 -0.2
v 0.3 1.1 -0.2
v -0.6 1.1 -0.3
v -0.3 1.1 -0.3
v -0.2 1.1 -0.3
v 0.2 1.1 -0.3
v 0.3 1.1 -0.3
v 0.6 1.1 -0.3
v -0.6 1.1 -0.4
v -0.3 1.1 -0.4
v 0.3 1.1 -0.4
v 0.6 1.1 -0.4
v -0.8 1.3 0.5
v -0.6 1.3 0.5
v 0.6 1.3 0.5
v 0.8 1.3 0.5
v -0.8 1.3 0.0999999
v -0.6 1.3 0.0999999
v 0.6 1.3 0.0999999
v 0.8 1.3 0.0999999
v -1 1.4 0.5
v -0.8 1.4 0.5
v 0.8 1.4 0.5
v 1 1.4 0.5
v -1 1.4 0.0999999
v -0.8 1.4 0.0999999
v 0.8 1.4 0.0999999
v 1 1.4 0.0999999
v -0.6 1.2 -0.3
v -0.5 1.2 -0.3
v 0.5 1.2 -0.3
v 0.6 1.2 -0.3
v -0.6 1.2 -0.4
v -0.5 1.2 -0.4
v 0.5 1.2 -0.4
v 0.6 1.2 -0.4
v -0.6 1.3 0.6
v -0.4 1.3 0.6
v 0.4 1.3 0.6
v 0.6 1.3 0.6
v -0.6 1.3 0.5
v -0.4 1.3 0.5
v 0.4 1.3 0.5
v 0.6 1.3 0.5
v -0.6 1.3 0.0999999
v -0.5 1.3 0.0999999
v 0.5 1.3 0.0999999
v 0.6 1.3 0.0999999
v -0.2 1.3 -5.96046e-08
v -0.0999999 1.3 -5.96046e-08
v 0.1 1.3 -5.96046e-08
v 0.2 1.3 -5.96046e-08
v -0.5 1.3 -0.1
v -0.3 1.3 -0.1
v -0.2 1.3 -0.1
v -0.0999999 1.3 -0.1
v 0.1 1.3 -0.1
v 0.2 1.3 -0.1
v 0.3 1.3 -0.1
v 0.5 1.3 -0.1
v -0.5 1.3 -0.2
v -0.3 1.3 -0.2
v -0.2 1.3 -0.2
v -0.0999999 1.3 -0.2
v 0.1 1.3 -0.2
v 0.2 1.3 -0.2
v 0.3 1.3 -0.2
v 0.5 1.3 -0.2
v -0.6 1.3 -0.3
v -0.5 1.3 -0.3
v -0.3 1.3 -0.3
v -0.2 1.3 -0.3
v 0.2 1.3 -0.3
v 0.3 1.3 -0.3
v 0.5 1.3 -0.3
v 0.6 1.3 -0.3
v -0.5 1.3 -0.4
v -0.3 1.3 -0.4
v 0.3 1.3 -0.4
v 0.5 1.3 -0.4
v -0.4 1.4 0.6
v 0.4 1.4 0.6
v -0.6 1.4 0.5
v -0.4 1.4 0.5
v 0.4 1.4 0.5
v 0.6 1.4 0.5
v -0.5 1.4 0.4
v -0.3 1.4 0.4
v -0.0999999 1.4 0.4
v 0.1 1.4 0.4
v 0.3 1.4 0.4
v 0.5 1.4 0.4
v -0.6 1.4 0.0999999
v -0.5 1.4 0.0999999
v -0.3 1.4 0.0999999
v -0.0999999 1.4 0.0999999
v 0.1 1.4 0.0999999
v 0.3 1.4 0.0999999
v 0.5 1.4 0.0999999
v 0.6 1.4 0.0999999
v -0.2 1.4 -5.96046e-08
v -0.0999999 1.4 -5.96046e-08
v 0.1 1.4 -5.96046e-08
v 0.2 1.4 -5.96046e-08
v -0.5 1.4 -0.1
v -0.3 1.4 -0.1
v -0.2 1.4 -0.1
v -0.0999999 1.4 -0.1
v 0.1 1.4 -0.1
v 0.2 1.4 -0.1
v 0.3 1.4 -0.1
v 0.5 1.4 -0.1
v -0.5 1.4 -0.2
v -0.3 1.4 -0.2
v 0.3 1.4 -0.2
v 0.5 1.4 -0.2
v -1 1.5 0.5
v -0.6 1.5 0.5
v 0.6 1.5 0.5
v 1 1.5 0.5
v -0.5 1.5 0.4
v -0.3 1.5 0.4
v -0.0999999 1.5 0.4
v 0.1 1.5 0.4
v 0.3 1.5 0.4
v 0.5 1.5 0.4
v -1 1.5 0.0999999
v -0.6 1.5 0.0999999
v -0.5 1.5 0.0999999
v -0.3 1.5 0.0999999
v -0.0999999 1.5 0.0999999
v 0.1 1.5 0.0999999
v 0.3 1.5 0.0999999
v 0.5 1.5 0.0999999
v 0.6 1.5 0.0999999
v 1 1.5 0.0999999

# faces
f 3/2/1 2/2/1 1/2/1
f 4/2/1 2/2/1 3/2/1
f 7/2/1 6/2/1 5/2/1
f 8/2/1 6/2/1 7/2/1
f 12/1/1 10/1/1 9/1/1
f 13/1/1 10/1/1 12/1/1
f 16/1/1 12/1/1 11/1/1
f 16/1/1 13/1/1 12/1/1
f 17/2/1 14/2/1 13/2/1
f 17/1/1 13/1/1 16/1/1
f 18/2/1 14/2/1 17/2/1
f 20/2/1 16/2/1 15/2/1
f 20/2/1 19/2/1 18/2/1
f 20/2/1 18/2/1 17/2/1
f 20/2/1 17/2/1 16/2/1
f 21/2/1 19/2/1 20/2/1
f 22/2/1 20/2/1 15/2/1
f 23/2/1 20/2/1 22/2/1
f 24/2/1 20/2/1 23/2/1
f 25/2/1 20/2/1 24/2/1
f 31/1/1 27/1/1 26/1/1
f 32/1/1 27/1/1 31/1/1
f 33/1/1 29/1/1 28/1/1
f 34/1/1 29/1/1 33/1/1
f 35/1/1 31/1/1 30/1/1
f 36/1/1 31/1/1 35/1/1
f 42/2/1 38/2/1 37/2/1
f 43/2/1 38/2/1 42/2/1
f 45/2/1 40/2/1 39/2/1
f 46/1/1 41/1/1 40/1/1
f 46/2/1 40/2/1 45/2/1
f 47/1/1 41/1/1 46/1/1
f 48/1/1 45/1/1 44/1/1
f 49/1/1 45/1/1 48/1/1
f 52/1/1 51/1/1 50/1/1
f 53/1/1 51/1/1 52/1/1
f 56/2/1 55/2/1 54/2/1
f 57/2/1 55/2/1 56/2/1
f 62/1/1 59/1/1 58/1/1
f 63/1/1 59/1/1 62/1/1
f 64/1/1 61/1/1 60/1/1
f 65/1/1 61/1/1 64/1/1
f 68/2/1 67/2/1 66/2/1
f 69/2/1 67/2/1 68/2/1
f 72/1/1 71/1/1 70/1/1
f 73/1/1 71/1/1 72/1/1
f 76/2/1 75/2/1 74/2/1
f 77/2/1 75/2/1 76/2/1
f 81/2/1 78/2/1 77/2/1
f 82/2/1 78/2/1 81/2/1
f 83/2/1 80/2/1 79/2/1
f 84/2/1 80/2/1 83/2/1
f 87/1/1 86/1/1 85/1/1
f 88/1/1 86/1/1 87/1/1
f 91/2/1 90/2/1 89/2/1
f 92/2/1 90/2/1 91/2/1
f 96/2/1 93/2/1 92/2/1
f 97/2/1 93/2/1 96/2/1
f 100/1/1 95/1/1 94/1/1
f 101/1/1 95/1/1 100/1/1
f 102/1/1 99/1/1 98/1/1
f 103/1/1 99/1/1 102/1/1
f 106/2/1 105/2/1 104/2/1
f 107/2/1 105/2/1 106/2/1
f 108/2/2 109/2/2 110/2/2
f 110/2/2 109/2/2 111/2/2
f 112/1/2 113/1/2 114/1/2
f 114/1/2 113/1/2 115/1/2
f 116/2/2 117/2/2 118/2/2
f 118/2/2 117/2/2 119/2/2
f 119/2/2 120/2/2 123/2/2
f 123/2/2 120/2/2 124/2/2
f 121/1/2 122/1/2 127/1/2
f 127/1/2 122/1/2 128/1/2
f 125/1/2 126/1/2 129/1/2
f 129/1/2 126/1/2 130/1/2
f 131/1/2 132/1/2 133/1/2
f 133/1/2 132/1/2 134/1/2
f 135/2/2 136/2/2 137/2/2
f 137/2/2 136/2/2 138/2/2
f 138/2/2 139/2/2 142/2/2
f 142/2/2 139/2/2 143/2/2
f 140/2/2 141/2/2 144/2/2
f 144/2/2 141/2/2 145/2/2
f 146/2/2 147/2/2 148/2/2
f 148/2/2 147/2/2 149/2/2
f 150/1/2 151/1/2 154/1/2
f 154/1/2 151/1/2 155/1/2
f 152/1/2 153/1/2 156/1/2
f 156/1/2 153/1/2 157/1/2
f 158/1/2 159/1/2 160/1/2
f 160/1/2 159/1/2 161/1/2
f 162/2/2 163/2/2 164/2/2
f 164/2/2 163/2/2 165/2/2
f 166/1/2 167/1/2 171/1/2
f 171/1/2 167/1/2 172/1/2
f 168/1/2 169/1/2 173/1/2
f 173/1/2 169/1/2 174/1/2
f 170/1/2 171/1/2 175/1/2
f 175/1/2 171/1/2 176/1/2
f 177/2/2 178/2/2 182/2/2
f 182/2/2 178/2/2 183/2/2
f 179/2/2 180/2/2 185/2/2
f 180/1/2 181/1/2 186/1/2
f 185/2/2 180/2/2 186/2/2
f 186/1/2 181/1/2 187/1/2
f 184/1/2 185/1/2 188/1/2
f 188/1/2 185/1/2 189/1/2
f 190/1/2 191/1/2 193/1/2
f 193/1/2 191/1/2 194/1/2
f 192/1/2 193/1/2 197/1/2
f 193/1/2 194/1/2 197/1/2
f 194/2/2 195/2/2 198/2/2
f 197/1/2 194/1/2 198/1/2
f 198/2/2 195/2/2 199/2/2
f 196/2/2 197/2/2 201/2/2
f 199/2/2 200/2/2 201/2/2
f 198/2/2 199/2/2 201/2/2
f 197/2/2 198/2/2 201/2/2
f 201/2/2 200/2/2 202/2/2
f 196/2/2 201/2/2 203/2/2
f 203/2/2 201/2/2 204/2/2
f 204/2/2 201/2/2 205/2/2
f 205/2/2 201/2/2 206/2/2
f 207/2/2 208/2/2 209/2/2
f 209/2/2 208/2/2 210/2/2
f 211/2/2 212/2/2 213/2/2
f 213/2/2 212/2/2 214/2/2
f 218/2/3 216/2/3 215/2/3
f 220/1/3 218/1/3 217/1/3
f 221/2/3 216/2/3 218/2/3
f 223/2/3 221/2/3 218/2/3
f 223/2/3 222/2/3 221/2/3
f 224/2/3 222/2/3 223/2/3
f 225/1/3 220/1/3 219/1/3
f 225/1/3 218/1/3 220/1/3
f 225/2/3 223/2/3 218/2/3
f 226/5/3 224/5/3 223/5/3
f 226/2/3 223/2/3 225/2/3
f 227/2/3 222/2/3 224/2/3
f 227/5/3 224/5/3 226/5/3
f 228/1/3 225/1/3 219/1/3
f 229/4/3 226/4/3 225/4/3
f 229/1/3 225/1/3 228/1/3
f 230/1/3 228/1/3 219/1/3
f 230/4/3 229/4/3 228/4/3
f 231/4/3 226/4/3 229/4/3
f 231/4/3 229/4/3 230/4/3
f 232/1/3 230/1/3 219/1/3
f 232/3/3 231/3/3 230/3/3
f 233/4/3 226/4/3 231/4/3
f 233/3/3 231/3/3 232/3/3
f 234/1/3 233/1/3 232/1/3
f 234/4/3 226/4/3 233/4/3
f 235/2/3 227/2/3 226/2/3
f 235/4/3 226/4/3 234/4/3
f 236/2/3 222/2/3 227/2/3
f 236/2/3 227/2/3 235/2/3
f 237/2/3 235/2/3 234/2/3
f 237/5/3 236/5/3 235/5/3
f 238/2/3 222/2/3 236/2/3
f 238/5/3 236/5/3 237/5/3
f 239/1/3 232/1/3 219/1/3
f 239/1/3 234/1/3 232/1/3
f 240/1/3 234/1/3 239/1/3
f 241/2/3 222/2/3 238/2/3
f 241/2/3 238/2/3 237/2/3
f 242/2/3 222/2/3 241/2/3
f 243/1/3 234/1/3 240/1/3
f 244/2/3 237/2/3 234/2/3
f 244/1/3 234/1/3 243/1/3
f 244/2/3 241/2/3 237/2/3
f 245/2/3 241/2/3 244/2/3
f 246/2/3 241/2/3 245/2/3
f 250/2/3 248/2/3 247/2/3
f 253/2/3 250/2/3 249/2/3
f 254/2/3 248/2/3 250/2/3
f 254/2/3 250/2/3 253/2/3
f 255/2/3 248/2/3 254/2/3
f 257/1/3 252/1/3 251/1/3
f 258/1/3 252/1/3 257/1/3
f 259/1/3 257/1/3 256/1/3
f 260/1/3 257/1/3 259/1/3
f 261/2/3 254/2/3 253/2/3
f 262/2/3 254/2/3 261/2/3
f 267/1/3 264/1/3 263/1/3
f 268/1/3 264/1/3 267/1/3
f 270/1/3 269/1/3 268/1/3
f 271/1/3 269/1/3 270/1/3
f 272/2/3 266/2/3 265/2/3
f 273/2/3 266/2/3 272/2/3
f 275/2/3 273/2/3 272/2/3
f 275/2/3 274/2/3 273/2/3
f 276/2/3 274/2/3 275/2/3
f 277/2/3 274/2/3 276/2/3
f 278/2/3 274/2/3 277/2/3
f 281/1/3 280/1/3 279/1/3
f 282/1/3 280/1/3 281/1/3
f 285/1/3 284/1/3 283/1/3
f 286/1/3 284/1/3 285/1/3
f 289/1/3 288/1/3 287/1/3
f 290/1/3 288/1/3 289/1/3
f 295/1/3 292/1/3 291/1/3
f 296/1/3 292/1/3 295/1/3
f 297/1/3 294/1/3 293/1/3
f 298/1/3 294/1/3 297/1/3
f 299/2/4 300/2/4 302/2/4
f 301/2/4 302/2/4 303/2/4
f 302/2/4 300/2/4 304/2/4
f 303/2/4 302/2/4 304/2/4
f 304/2/4 300/2/4 305/2/4
f 303/2/4 304/2/4 306/2/4
f 306/2/4 304/2/4 307/2/4
f 307/1/4 308/1/4 309/1/4
f 309/1/4 308/1/4 310/1/4
f 313/1/4 314/1/4 315/1/4
f 315/1/4 314/1/4 316/1/4
f 311/1/4 312/1/4 317/1/4
f 317/1/4 312/1/4 318/1/4
f 319/1/4 320/1/4 322/1/4
f 322/1/4 320/1/4 323/1/4
f 321/2/4 322/2/4 324/2/4
f 324/2/4 322/2/4 325/2/4
f 324/2/4 325/2/4 327/2/4
f 325/2/4 326/2/4 327/2/4
f 327/2/4 326/2/4 328/2/4
f 328/2/4 326/2/4 329/2/4
f 329/2/4 326/2/4 330/2/4
f 331/1/4 332/1/4 333/1/4
f 333/1/4 332/1/4 334/1/4
f 335/1/4 336/1/4 337/1/4
f 337/1/4 336/1/4 338/1/4
f 339/2/4 340/2/4 341/2/4
f 341/2/4 340/2/4 342/2/4
f 343/2/4 344/2/4 347/2/4
f 347/2/4 344/2/4 348/2/4
f 345/1/4 346/1/4 349/1/4
f 349/1/4 346/1/4 350/1/4
f 351/1/4 352/1/4 353/1/4
f 353/1/4 352/1/4 354/1/4
f 355/1/4 356/1/4 357/1/4
f 357/1/4 356/1/4 358/1/4
f 359/2/4 360/2/4 363/2/4
f 363/2/4 360/2/4 364/2/4
f 361/2/4 362/2/4 365/2/4
f 361/2/4 365/2/4 368/2/4
f 365/2/4 366/2/4 368/2/4
f 366/1/4 367/1/4 369/1/4
f 368/2/4 366/2/4 369/2/4
f 369/1/4 367/1/4 370/1/4
f 361/2/4 368/2/4 371/2/4
f 371/2/4 368/2/4 372/2/4
f 373/2/4 374/2/4 377/2/4
f 377/2/4 374/2/4 378/2/4
f 375/1/4 376/1/4 379/1/4
f 379/1/4 376/1/4 380/1/4
f 381/1/4 382/1/4 385/1/4
f 385/1/4 382/1/4 386/1/4
f 383/2/4 384/2/4 387/2/4
f 387/2/4 384/2/4 388/2/4
f 388/2/4 389/2/4 390/2/4
f 390/2/4 389/2/4 391/2/4
f 392/2/4 393/2/4 395/2/4
f 395/2/4 393/2/4 396/2/4
f 394/2/4 395/2/4 397/2/4
f 397/2/4 395/2/4 398/2/4
f 399/1/4 400/1/4 401/1/4
f 401/1/4 400/1/4 402/1/4
f 405/2/4 406/2/4 407/2/4
f 407/2/4 406/2/4 408/2/4
f 403/2/4 404/2/4 409/2/4
f 409/2/4 404/2/4 410/2/4
f 410/2/4 411/2/4 412/2/4
f 412/2/4 411/2/4 413/2/4
f 414/2/4 415/2/4 417/2/4
f 417/2/4 415/2/4 418/2/4
f 416/2/4 417/2/4 421/2/4
f 421/2/4 417/2/4 422/2/4
f 419/2/4 420/2/4 423/2/4
f 423/2/4 420/2/4 424/2/4
f 425/2/4 426/2/4 427/2/4
f 425/2/4 427/2/4 429/2/4
f 427/2/4 428/2/4 429/2/4
f 429/2/4 428/2/4 430/2/4
f 431/2/4 432/2/4 433/2/4
f 433/2/4 432/2/4 434/2/4
f 431/2/4 433/2/4 435/2/4
f 435/2/4 433/2/4 436/2/4
f 440/1/5 438/1/5 437/1/5
f 441/1/5 438/1/5 440/1/5
f 444/1/5 440/1/5 439/1/5
f 444/1/5 442/1/5 441/1/5
f 444/1/5 441/1/5 440/1/5
f 445/1/5 442/1/5 444/1/5
f 447/1/5 444/1/5 443/1/5
f 447/1/5 446/1/5 445/1/5
f 447/1/5 445/1/5 444/1/5
f 448/1/5 446/1/5 447/1/5
f 449/1/5 447/1/5 443/1/5
f 450/1/5 447/1/5 449/1/5
f 451/1/5 447/1/5 450/1/5
f 452/1/5 447/1/5 451/1/5
f 453/1/5 446/1/5 448/1/5
f 454/1/5 446/1/5 453/1/5
f 455/1/5 446/1/5 454/1/5
f 456/1/5 446/1/5 455/1/5
f 457/1/5 451/1/5 450/1/5
f 458/1/5 451/1/5 457/1/5
f 459/1/5 455/1/5 454/1/5
f 460/1/5 455/1/5 459/1/5
f 466/1/5 462/1/5 461/1/5
f 467/1/5 462/1/5 466/1/5
f 468/1/5 464/1/5 463/1/5
f 469/1/5 464/1/5 468/1/5
f 471/1/5 466/1/5 465/1/5
f 472/1/5 466/1/5 471/1/5
f 473/1/5 470/1/5 469/1/5
f 474/1/5 470/1/5 473/1/5
f 480/2/5 476/2/5 475/2/5
f 481/2/5 476/2/5 480/2/5
f 485/2/5 478/2/5 477/2/5
f 486/2/5 480/2/5 479/2/5
f 486/2/5 481/2/5 480/2/5
f 486/2/5 482/2/5 481/2/5
f 487/2/5 482/2/5 486/2/5
f 488/2/5 482/2/5 487/2/5
f 489/2/5 482/2/5 488/2/5
f 490/2/5 484/2/5 483/2/5
f 491/2/5 486/2/5 485/2/5
f 491/2/5 487/2/5 486/2/5
f 492/2/5 487/2/5 491/2/5
f 493/2/5 489/2/5 488/2/5
f 493/2/5 490/2/5 489/2/5
f 494/2/5 490/2/5 493/2/5
f 495/2/5 485/2/5 477/2/5
f 495/2/5 491/2/5 485/2/5
f 496/2/5 491/2/5 495/2/5
f 497/2/5 490/2/5 494/2/5
f 498/2/5 484/2/5 490/2/5
f 498/2/5 490/2/5 497/2/5
f 503/2/5 500/2/5 499/2/5
f 504/2/5 500/2/5 503/2/5
f 505/2/5 502/2/5 501/2/5
f 506/2/5 502/2/5 505/2/5
f 512/2/5 508/2/5 507/2/5
f 513/2/5 508/2/5 512/2/5
f 514/2/5 510/2/5 509/2/5
f 515/2/5 510/2/5 514/2/5
f 518/2/5 512/2/5 511/2/5
f 519/2/5 512/2/5 518/2/5
f 520/2/5 516/2/5 515/2/5
f 521/2/5 516/2/5 520/2/5
f 523/2/5 518/2/5 517/2/5
f 524/2/5 518/2/5 523/2/5
f 525/2/5 522/2/5 521/2/5
f 526/2/5 522/2/5 525/2/5
f 531/2/5 528/2/5 527/2/5
f 532/2/5 528/2/5 531/2/5
f 533/2/5 530/2/5 529/2/5
f 534/2/5 530/2/5 533/2/5
f 539/2/5 536/2/5 535/2/5
f 540/2/5 536/2/5 539/2/5
f 541/2/5 538/2/5 537/2/5
f 542/2/5 538/2/5 541/2/5
f 543/2/6 544/2/6 547/2/6
f 547/2/6 544/2/6 548/2/6
f 545/2/6 546/2/6 549/2/6
f 549/2/6 546/2/6 550/2/6
f 551/2/6 552/2/6 555/2/6
f 555/2/6 552/2/6 556/2/6
f 553/2/6 554/2/6 557/2/6
f 557/2/6 554/2/6 558/2/6
f 559/2/6 560/2/6 567/2/6
f 563/2/6 564/2/6 569/2/6
f 569/2/6 564/2/6 570/2/6
f 565/2/6 566/2/6 571/2/6
f 571/2/6 566/2/6 572/2/6
f 561/2/6 562/2/6 574/2/6
f 559/2/6 567/2/6 575/2/6
f 569/2/6 570/2/6 576/2/6
f 568/2/6 569/2/6 576/2/6
f 576/2/6 570/2/6 577/2/6
f 577/2/6 570/2/6 578/2/6
f 572/2/6 573/2/6 579/2/6
f 571/2/6 572/2/6 579/2/6
f 579/2/6 573/2/6 580/2/6
f 580/2/6 573/2/6 581/2/6
f 574/2/6 562/2/6 582/2/6
f 559/2/6 575/2/6 583/2/6
f 576/2/6 577/2/6 583/2/6
f 575/2/6 576/2/6 583/2/6
f 583/2/6 577/2/6 584/2/6
f 584/2/6 577/2/6 585/2/6
f 585/2/6 577/2/6 586/2/6
f 581/2/6 582/2/6 587/2/6
f 580/2/6 581/2/6 587/2/6
f 587/2/6 582/2/6 588/2/6
f 582/2/6 562/2/6 589/2/6
f 588/2/6 582/2/6 589/2/6
f 589/2/6 562/2/6 590/2/6
f 584/2/6 585/2/6 591/2/6
f 591/2/6 585/2/6 592/2/6
f 588/2/6 589/2/6 593/2/6
f 593/2/6 589/2/6 594/2/6
f 595/2/6 596/2/6 598/2/6
f 598/2/6 596/2/6 599/2/6
f 597/2/6 598/2/6 601/2/6
f 599/2/6 600/2/6 601/2/6
f 598/2/6 599/2/6 601/2/6
f 601/2/6 600/2/6 602/2/6
f 602/2/6 600/2/6 603/2/6
f 603/2/6 600/2/6 604/2/6
f 604/2/6 600/2/6 605/2/6
f 605/2/6 600/2/6 606/2/6
f 597/2/6 601/2/6 607/2/6
f 607/2/6 601/2/6 608/2/6
f 602/2/6 603/2/6 609/2/6
f 609/2/6 603/2/6 610/2/6
f 604/2/6 605/2/6 611/2/6
f 611/2/6 605/2/6 612/2/6
f 606/2/6 600/2/6 613/2/6
f 613/2/6 600/2/6 614/2/6
f 611/2/6 612/2/6 615/2/6
f 609/2/6 610/2/6 615/2/6
f 612/2/6 613/2/6 615/2/6
f 610/2/6 611/2/6 615/2/6
f 608/2/6 609/2/6 615/2/6
f 615/2/6 613/2/6 616/2/6
f 616/2/6 613/2/6 617/2/6
f 617/2/6 613/2/6 618/2/6
f 608/2/6 615/2/6 619/2/6
f 619/2/6 615/2/6 620/2/6
f 620/2/6 615/2/6 621/2/6
f 616/1/6 617/1/6 622/1/6
f 622/1/6 617/1/6 623/1/6
f 618/2/6 613/2/6 624/2/6
f 624/2/6 613/2/6 625/2/6
f 625/2/6 613/2/6 626/2/6
f 619/1/6 620/1/6 627/1/6
f 627/1/6 620/1/6 628/1/6
f 625/1/6 626/1/6 629/1/6
f 629/1/6 626/1/6 630/1/6
f 631/2/6 632/2/6 641/2/6
f 641/2/6 632/2/6 642/2/6
f 635/1/6 636/1/6 643/1/6
f 643/1/6 636/1/6 644/1/6
f 637/1/6 638/1/6 645/1/6
f 645/1/6 638/1/6 646/1/6
f 639/1/6 640/1/6 647/1/6
f 647/1/6 640/1/6 648/1/6
f 633/2/6 634/2/6 649/2/6
f 649/2/6 634/2/6 650/2/6
