# MagicaVoxel @ Ephtracy

# group
o 

# material
mtllib LightBook.mtl
usemtl palette

# normals
vn -1 0 0
vn 1 0 0
vn 0 0 1
vn 0 0 -1
vn 0 -1 0
vn 0 1 0

# texcoords
vt 0.0136719 0.5
vt 0.837891 0.5
vt 0.958984 0.5
vt 0.966797 0.5
vt 0.994141 0.5

# verts
v -1.5 0.1 -0.5
v -1.5 0.1 -1
v -1.5 0.2 1
v -1.5 0.2 -0.5
v -1.5 0.2 -1
v -1.5 0.3 1
v -1.5 0.3 -0.5
v -1.4 0.2 -0.5
v -1.4 0.2 -0.8
v -1.4 0.2 -1
v -1.4 0.3 1
v -1.4 0.3 -0.5
v -1.4 0.3 -0.8
v -1.4 0.3 -1
v -1.4 0.4 1
v -1.4 0.4 -0.8
v -1.3 0.3 -0.8
v -1.3 0.3 -1
v -1.3 0.4 -0.8
v -1.3 0.4 -1
v -0.3 0.1 1
v -0.3 0.1 -1
v -0.3 0.2 1
v -0.3 0.2 -1
v -0.2 0 1
v -0.2 0 -1
v -0.2 0.1 1
v -0.2 0.1 -1
v 0 0.2 1
v 0 0.2 -1
v 0 0.3 1
v 0 0.3 -1
v 0.4 0.3 1
v 0.4 0.3 0.1
v 0.4 0.3 0
v 0.4 0.3 -0.1
v 0.4 0.3 -0.2
v 0.4 0.3 -0.7
v 0.4 0.3 -0.8
v 0.4 0.3 -1
v 0.4 0.4 1
v 0.4 0.4 0.1
v 0.4 0.4 0
v 0.4 0.4 -0.1
v 0.4 0.4 -0.2
v 0.4 0.4 -0.7
v 0.4 0.4 -0.8
v 0.4 0.4 -1
v 1.3 0.1 -0.6
v 1.3 0.1 -1
v 1.3 0.2 -0.6
v 1.3 0.2 -1
v 1.4 0.1 -0.3
v 1.4 0.1 -0.6
v 1.4 0.2 -0.3
v 1.4 0.2 -0.6
v -1.4 0.1 -0.5
v -1.4 0.1 -0.8
v -1.4 0.2 -0.5
v -1.4 0.2 -0.8
v -1.3 0.1 -0.8
v -1.3 0.1 -1
v -1.3 0.2 -0.8
v -1.3 0.2 -1
v -0.3 0.3 1
v -0.3 0.3 0.2
v -0.3 0.3 0.1
v -0.3 0.3 -0.1
v -0.3 0.3 -0.2
v -0.3 0.3 -0.4
v -0.3 0.3 -0.5
v -0.3 0.3 -0.7
v -0.3 0.3 -0.8
v -0.3 0.3 -1
v -0.3 0.4 1
v -0.3 0.4 0.2
v -0.3 0.4 0.1
v -0.3 0.4 -0.1
v -0.3 0.4 -0.2
v -0.3 0.4 -0.4
v -0.3 0.4 -0.5
v -0.3 0.4 -0.7
v -0.3 0.4 -0.8
v -0.3 0.4 -1
v -0.1 0.2 1
v -0.1 0.2 -1
v -0.1 0.3 1
v -0.1 0.3 -1
v 0.2 0 1
v 0.2 0 -1
v 0.2 0.1 1
v 0.2 0.1 -1
v 0.4 0.1 1
v 0.4 0.1 -1
v 0.4 0.2 1
v 0.4 0.2 -1
v 1.3 0.3 -0.6
v 1.3 0.3 -0.7
v 1.3 0.3 -0.8
v 1.3 0.3 -1
v 1.3 0.4 -0.6
v 1.3 0.4 -0.7
v 1.3 0.4 -0.8
v 1.3 0.4 -1
v 1.4 0.2 -0.3
v 1.4 0.2 -0.6
v 1.4 0.2 -1
v 1.4 0.3 1
v 1.4 0.3 -0.3
v 1.4 0.3 -0.6
v 1.4 0.3 -1
v 1.4 0.4 1
v 1.4 0.4 -0.6
v 1.5 0.1 -0.3
v 1.5 0.1 -1
v 1.5 0.2 1
v 1.5 0.2 -0.3
v 1.5 0.2 -1
v 1.5 0.3 1
v 1.5 0.3 -0.3
v -1.5 0.2 1
v -1.5 0.3 1
v -1.4 0.3 1
v -1.4 0.4 1
v -0.3 0.1 1
v -0.3 0.2 1
v -0.3 0.3 1
v -0.3 0.4 1
v -0.2 0 1
v -0.2 0.1 1
v -0.2 0.2 1
v -0.1 0.2 1
v -0.1 0.3 1
v 0 0.2 1
v 0 0.3 1
v 0.2 0 1
v 0.2 0.1 1
v 0.2 0.2 1
v 0.4 0.1 1
v 0.4 0.2 1
v 0.4 0.3 1
v 0.4 0.4 1
v 1.4 0.3 1
v 1.4 0.4 1
v 1.5 0.2 1
v 1.5 0.3 1
v 1.4 0.1 -0.3
v 1.4 0.2 -0.3
v 1.5 0.1 -0.3
v 1.5 0.2 -0.3
v -1.5 0.1 -0.5
v -1.5 0.2 -0.5
v -1.4 0.1 -0.5
v -1.4 0.2 -0.5
v 1.3 0.1 -0.6
v 1.3 0.2 -0.6
v 1.4 0.1 -0.6
v 1.4 0.2 -0.6
v -1.4 0.1 -0.8
v -1.4 0.2 -0.8
v -1.3 0.1 -0.8
v -1.3 0.2 -0.8
v 1.4 0.2 -0.3
v 1.4 0.3 -0.3
v 1.5 0.2 -0.3
v 1.5 0.3 -0.3
v -1.5 0.2 -0.5
v -1.5 0.3 -0.5
v -1.4 0.2 -0.5
v -1.4 0.3 -0.5
v 1.3 0.3 -0.6
v 1.3 0.4 -0.6
v 1.4 0.3 -0.6
v 1.4 0.4 -0.6
v -1.4 0.3 -0.8
v -1.4 0.4 -0.8
v -1.3 0.3 -0.8
v -1.3 0.4 -0.8
v -1.5 0.1 -1
v -1.5 0.2 -1
v -1.4 0.2 -1
v -1.4 0.3 -1
v -1.3 0.1 -1
v -1.3 0.2 -1
v -1.3 0.3 -1
v -1.3 0.4 -1
v -0.3 0.1 -1
v -0.3 0.2 -1
v -0.3 0.3 -1
v -0.3 0.4 -1
v -0.2 0 -1
v -0.2 0.1 -1
v -0.2 0.2 -1
v -0.1 0.2 -1
v -0.1 0.3 -1
v 0 0.2 -1
v 0 0.3 -1
v 0.2 0 -1
v 0.2 0.1 -1
v 0.2 0.2 -1
v 0.4 0.1 -1
v 0.4 0.2 -1
v 0.4 0.3 -1
v 0.4 0.4 -1
v 1.3 0.1 -1
v 1.3 0.2 -1
v 1.3 0.3 -1
v 1.3 0.4 -1
v 1.4 0.2 -1
v 1.4 0.3 -1
v 1.5 0.1 -1
v 1.5 0.2 -1
v -0.2 0 1
v 0.2 0 1
v -0.2 0 -1
v 0.2 0 -1
v -0.3 0.1 1
v -0.2 0.1 1
v 0.2 0.1 1
v 0.4 0.1 1
v 1.4 0.1 -0.3
v 1.5 0.1 -0.3
v -1.5 0.1 -0.5
v -1.4 0.1 -0.5
v 1.3 0.1 -0.6
v 1.4 0.1 -0.6
v -1.4 0.1 -0.8
v -1.3 0.1 -0.8
v -1.5 0.1 -1
v -1.3 0.1 -1
v -0.3 0.1 -1
v -0.2 0.1 -1
v 0.2 0.1 -1
v 0.4 0.1 -1
v 1.3 0.1 -1
v 1.5 0.1 -1
v -1.5 0.2 1
v -0.3 0.2 1
v 0.4 0.2 1
v 1.5 0.2 1
v 1.4 0.2 -0.3
v 1.5 0.2 -0.3
v -1.5 0.2 -0.5
v -1.4 0.2 -0.5
v 1.3 0.2 -0.6
v 1.4 0.2 -0.6
v -1.4 0.2 -0.8
v -1.3 0.2 -0.8
v -1.3 0.2 -1
v -0.3 0.2 -1
v 0.4 0.2 -1
v 1.3 0.2 -1
v -0.1 0.2 1
v 0 0.2 1
v 1.4 0.2 -0.3
v 1.5 0.2 -0.3
v -1.5 0.2 -0.5
v -1.4 0.2 -0.5
v 1.4 0.2 -0.6
v -1.4 0.2 -0.8
v -1.5 0.2 -1
v -1.4 0.2 -1
v -0.1 0.2 -1
v 0 0.2 -1
v 1.4 0.2 -1
v 1.5 0.2 -1
v -1.5 0.3 1
v -1.4 0.3 1
v -0.3 0.3 1
v -0.1 0.3 1
v 0 0.3 1
v 0.4 0.3 1
v 1.4 0.3 1
v 1.5 0.3 1
v -0.3 0.3 0.2
v -0.2 0.3 0.2
v -0.3 0.3 0.1
v -0.2 0.3 0.1
v 0.1 0.3 0.1
v 0.4 0.3 0.1
v 0.1 0.3 0
v 0.4 0.3 0
v -0.3 0.3 -0.1
v -0.2 0.3 -0.1
v 0.3 0.3 -0.1
v 0.4 0.3 -0.1
v -0.3 0.3 -0.2
v -0.2 0.3 -0.2
v 0.3 0.3 -0.2
v 0.4 0.3 -0.2
v 1.4 0.3 -0.3
v 1.5 0.3 -0.3
v -0.3 0.3 -0.4
v -0.2 0.3 -0.4
v -1.5 0.3 -0.5
v -1.4 0.3 -0.5
v -0.3 0.3 -0.5
v -0.2 0.3 -0.5
v 1.3 0.3 -0.6
v 1.4 0.3 -0.6
v -0.3 0.3 -0.7
v -0.2 0.3 -0.7
v 0.3 0.3 -0.7
v 0.4 0.3 -0.7
v 1.3 0.3 -0.7
v -1.4 0.3 -0.8
v -1.3 0.3 -0.8
v -0.3 0.3 -0.8
v -0.2 0.3 -0.8
v 0.3 0.3 -0.8
v 0.4 0.3 -0.8
v 1.3 0.3 -0.8
v -1.4 0.3 -1
v -1.3 0.3 -1
v -0.3 0.3 -1
v -0.1 0.3 -1
v 0 0.3 -1
v 0.4 0.3 -1
v 1.3 0.3 -1
v 1.4 0.3 -1
v -1.4 0.4 1
v -0.3 0.4 1
v 0.4 0.4 1
v 1.4 0.4 1
v -1.3 0.4 0.8
v -0.9 0.4 0.8
v 0.6 0.4 0.8
v 0.8 0.4 0.8
v 1.1 0.4 0.8
v 1.2 0.4 0.8
v -1.3 0.4 0.7
v -0.9 0.4 0.7
v 0.6 0.4 0.7
v 0.7 0.4 0.7
v 0.8 0.4 0.7
v 1.1 0.4 0.7
v 0.8 0.4 0.6
v 1 0.4 0.6
v 1.1 0.4 0.6
v 1.2 0.4 0.6
v -1.3 0.4 0.5
v -0.7 0.4 0.5
v -1.3 0.4 0.4
v -0.7 0.4 0.4
v 0.6 0.4 0.4
v 0.7 0.4 0.4
v 0.8 0.4 0.4
v 1 0.4 0.4
v 0.7 0.4 0.3
v 1 0.4 0.3
v 1.1 0.4 0.3
v 1.2 0.4 0.3
v -1.3 0.4 0.2
v -0.3 0.4 0.2
v 0.6 0.4 0.2
v 0.7 0.4 0.2
v 1 0.4 0.2
v 1.2 0.4 0.2
v -1.3 0.4 0.1
v -0.3 0.4 0.1
v 0.4 0.4 0.1
v 1.3 0.4 0.1
v 0.4 0.4 0
v 1.3 0.4 0
v -0.6 0.4 -0.1
v -0.3 0.4 -0.1
v 0.4 0.4 -0.1
v 1.3 0.4 -0.1
v -0.6 0.4 -0.2
v -0.3 0.4 -0.2
v 0.4 0.4 -0.2
v 1.3 0.4 -0.2
v 0.7 0.4 -0.3
v 1.3 0.4 -0.3
v -0.9 0.4 -0.4
v -0.3 0.4 -0.4
v 0.7 0.4 -0.4
v 1.3 0.4 -0.4
v -0.9 0.4 -0.5
v -0.3 0.4 -0.5
v 0.5 0.4 -0.5
v 1.3 0.4 -0.5
v 0.5 0.4 -0.6
v 1.3 0.4 -0.6
v 1.4 0.4 -0.6
v -1.2 0.4 -0.7
v -0.3 0.4 -0.7
v 0.4 0.4 -0.7
v 1.3 0.4 -0.7
v -1.4 0.4 -0.8
v -1.3 0.4 -0.8
v -1.2 0.4 -0.8
v -0.3 0.4 -0.8
v 0.4 0.4 -0.8
v 1.3 0.4 -0.8
v -1.3 0.4 -1
v -0.3 0.4 -1
v 0.4 0.4 -1
v 1.3 0.4 -1

# faces
f 4/1/1 2/1/1 1/1/1
f 5/1/1 2/1/1 4/1/1
f 6/1/1 4/1/1 3/1/1
f 7/1/1 4/1/1 6/1/1
f 12/1/1 9/1/1 8/1/1
f 13/3/1 10/3/1 9/3/1
f 13/1/1 9/1/1 12/1/1
f 14/3/1 10/3/1 13/3/1
f 15/3/1 12/3/1 11/3/1
f 15/3/1 13/3/1 12/3/1
f 16/3/1 13/3/1 15/3/1
f 19/3/1 18/3/1 17/3/1
f 20/3/1 18/3/1 19/3/1
f 23/1/1 22/1/1 21/1/1
f 24/1/1 22/1/1 23/1/1
f 27/1/1 26/1/1 25/1/1
f 28/1/1 26/1/1 27/1/1
f 31/3/1 30/3/1 29/3/1
f 32/3/1 30/3/1 31/3/1
f 41/3/1 34/3/1 33/3/1
f 42/2/1 35/2/1 34/2/1
f 42/3/1 34/3/1 41/3/1
f 43/3/1 36/3/1 35/3/1
f 43/2/1 35/2/1 42/2/1
f 44/2/1 37/2/1 36/2/1
f 44/3/1 36/3/1 43/3/1
f 45/3/1 38/3/1 37/3/1
f 45/2/1 37/2/1 44/2/1
f 46/2/1 39/2/1 38/2/1
f 46/3/1 38/3/1 45/3/1
f 47/3/1 40/3/1 39/3/1
f 47/2/1 39/2/1 46/2/1
f 48/3/1 40/3/1 47/3/1
f 51/1/1 50/1/1 49/1/1
f 52/1/1 50/1/1 51/1/1
f 55/1/1 54/1/1 53/1/1
f 56/1/1 54/1/1 55/1/1
f 57/1/2 58/1/2 59/1/2
f 59/1/2 58/1/2 60/1/2
f 61/1/2 62/1/2 63/1/2
f 63/1/2 62/1/2 64/1/2
f 65/3/2 66/3/2 75/3/2
f 66/2/2 67/2/2 76/2/2
f 75/3/2 66/3/2 76/3/2
f 67/3/2 68/3/2 77/3/2
f 76/2/2 67/2/2 77/2/2
f 68/2/2 69/2/2 78/2/2
f 77/3/2 68/3/2 78/3/2
f 69/3/2 70/3/2 79/3/2
f 78/2/2 69/2/2 79/2/2
f 70/2/2 71/2/2 80/2/2
f 79/3/2 70/3/2 80/3/2
f 71/3/2 72/3/2 81/3/2
f 80/2/2 71/2/2 81/2/2
f 72/2/2 73/2/2 82/2/2
f 81/3/2 72/3/2 82/3/2
f 73/3/2 74/3/2 83/3/2
f 82/2/2 73/2/2 83/2/2
f 83/3/2 74/3/2 84/3/2
f 85/3/2 86/3/2 87/3/2
f 87/3/2 86/3/2 88/3/2
f 89/1/2 90/1/2 91/1/2
f 91/1/2 90/1/2 92/1/2
f 93/1/2 94/1/2 95/1/2
f 95/1/2 94/1/2 96/1/2
f 97/3/2 98/3/2 101/3/2
f 98/2/2 99/2/2 102/2/2
f 101/3/2 98/3/2 102/3/2
f 99/3/2 100/3/2 103/3/2
f 102/2/2 99/2/2 103/2/2
f 103/3/2 100/3/2 104/3/2
f 105/1/2 106/1/2 109/1/2
f 106/3/2 107/3/2 110/3/2
f 109/1/2 106/1/2 110/1/2
f 110/3/2 107/3/2 111/3/2
f 108/3/2 109/3/2 112/3/2
f 109/3/2 110/3/2 112/3/2
f 112/3/2 110/3/2 113/3/2
f 114/1/2 115/1/2 117/1/2
f 117/1/2 115/1/2 118/1/2
f 116/1/2 117/1/2 119/1/2
f 119/1/2 117/1/2 120/1/2
f 123/1/3 122/1/3 121/1/3
f 126/1/3 123/1/3 121/1/3
f 127/3/3 124/3/3 123/3/3
f 127/1/3 123/1/3 126/1/3
f 128/3/3 124/3/3 127/3/3
f 130/1/3 126/1/3 125/1/3
f 131/3/3 127/3/3 126/3/3
f 131/1/3 126/1/3 130/1/3
f 132/4/3 131/4/3 130/4/3
f 132/3/3 127/3/3 131/3/3
f 133/3/3 127/3/3 132/3/3
f 134/4/3 132/4/3 130/4/3
f 136/1/3 130/1/3 129/1/3
f 137/4/3 134/4/3 130/4/3
f 137/1/3 130/1/3 136/1/3
f 138/3/3 135/3/3 134/3/3
f 138/4/3 134/4/3 137/4/3
f 139/1/3 138/1/3 137/1/3
f 140/3/3 135/3/3 138/3/3
f 140/1/3 138/1/3 139/1/3
f 141/3/3 135/3/3 140/3/3
f 143/1/3 141/1/3 140/1/3
f 143/3/3 142/3/3 141/3/3
f 144/3/3 142/3/3 143/3/3
f 145/1/3 143/1/3 140/1/3
f 146/1/3 143/1/3 145/1/3
f 149/1/3 148/1/3 147/1/3
f 150/1/3 148/1/3 149/1/3
f 153/1/3 152/1/3 151/1/3
f 154/1/3 152/1/3 153/1/3
f 157/1/3 156/1/3 155/1/3
f 158/1/3 156/1/3 157/1/3
f 161/1/3 160/1/3 159/1/3
f 162/1/3 160/1/3 161/1/3
f 163/1/4 164/1/4 165/1/4
f 165/1/4 164/1/4 166/1/4
f 167/1/4 168/1/4 169/1/4
f 169/1/4 168/1/4 170/1/4
f 171/3/4 172/3/4 173/3/4
f 173/3/4 172/3/4 174/3/4
f 175/3/4 176/3/4 177/3/4
f 177/3/4 176/3/4 178/3/4
f 179/1/4 180/1/4 181/1/4
f 179/1/4 181/1/4 183/1/4
f 181/3/4 182/3/4 184/3/4
f 183/1/4 181/1/4 184/1/4
f 184/3/4 182/3/4 185/3/4
f 184/1/4 185/1/4 188/1/4
f 185/3/4 186/3/4 189/3/4
f 188/1/4 185/1/4 189/1/4
f 189/3/4 186/3/4 190/3/4
f 187/1/4 188/1/4 192/1/4
f 188/3/4 189/3/4 193/3/4
f 192/1/4 188/1/4 193/1/4
f 192/4/4 193/4/4 194/4/4
f 193/3/4 189/3/4 194/3/4
f 194/3/4 189/3/4 195/3/4
f 192/4/4 194/4/4 196/4/4
f 191/1/4 192/1/4 198/1/4
f 192/4/4 196/4/4 199/4/4
f 198/1/4 192/1/4 199/1/4
f 196/3/4 197/3/4 200/3/4
f 199/4/4 196/4/4 200/4/4
f 199/1/4 200/1/4 201/1/4
f 200/3/4 197/3/4 202/3/4
f 201/1/4 200/1/4 202/1/4
f 202/3/4 197/3/4 203/3/4
f 202/1/4 203/1/4 206/1/4
f 203/3/4 204/3/4 207/3/4
f 206/1/4 203/1/4 207/1/4
f 207/3/4 204/3/4 208/3/4
f 205/1/4 206/1/4 209/1/4
f 206/3/4 207/3/4 209/3/4
f 209/3/4 207/3/4 210/3/4
f 205/1/4 209/1/4 211/1/4
f 211/1/4 209/1/4 212/1/4
f 215/1/5 214/1/5 213/1/5
f 216/1/5 214/1/5 215/1/5
f 226/1/5 222/1/5 221/1/5
f 227/1/5 224/1/5 223/1/5
f 229/1/5 227/1/5 223/1/5
f 229/1/5 228/1/5 227/1/5
f 230/1/5 228/1/5 229/1/5
f 231/1/5 218/1/5 217/1/5
f 232/1/5 218/1/5 231/1/5
f 233/1/5 220/1/5 219/1/5
f 234/1/5 220/1/5 233/1/5
f 235/1/5 226/1/5 225/1/5
f 236/1/5 222/1/5 226/1/5
f 236/1/5 226/1/5 235/1/5
f 241/1/5 240/1/5 239/1/5
f 242/1/5 240/1/5 241/1/5
f 243/1/5 238/1/5 237/1/5
f 244/1/5 238/1/5 243/1/5
f 245/1/5 241/1/5 239/1/5
f 246/1/5 241/1/5 245/1/5
f 247/1/5 238/1/5 244/1/5
f 248/1/5 238/1/5 247/1/5
f 249/1/5 238/1/5 248/1/5
f 250/1/5 238/1/5 249/1/5
f 251/1/5 245/1/5 239/1/5
f 252/1/5 245/1/5 251/1/5
f 255/1/6 256/1/6 259/1/6
f 257/1/6 258/1/6 260/1/6
f 257/1/6 260/1/6 261/1/6
f 261/1/6 260/1/6 262/1/6
f 253/4/6 254/4/6 263/4/6
f 263/4/6 254/4/6 264/4/6
f 259/1/6 256/1/6 265/1/6
f 265/1/6 256/1/6 266/1/6
f 269/3/6 270/3/6 275/3/6
f 275/3/6 270/3/6 276/3/6
f 275/2/6 276/2/6 277/2/6
f 276/3/6 270/3/6 278/3/6
f 277/2/6 276/2/6 278/2/6
f 271/3/6 272/3/6 279/3/6
f 279/3/6 272/3/6 280/3/6
f 271/3/6 279/3/6 281/3/6
f 279/2/6 280/2/6 281/2/6
f 281/2/6 280/2/6 282/2/6
f 277/3/6 278/3/6 283/3/6
f 278/3/6 270/3/6 284/3/6
f 283/3/6 278/3/6 284/3/6
f 281/3/6 282/3/6 285/3/6
f 285/3/6 282/3/6 286/3/6
f 283/2/6 284/2/6 287/2/6
f 284/3/6 270/3/6 288/3/6
f 287/2/6 284/2/6 288/2/6
f 281/3/6 285/3/6 289/3/6
f 285/2/6 286/2/6 289/2/6
f 289/2/6 286/2/6 290/2/6
f 273/1/6 274/1/6 291/1/6
f 291/1/6 274/1/6 292/1/6
f 287/3/6 288/3/6 293/3/6
f 288/3/6 270/3/6 294/3/6
f 293/3/6 288/3/6 294/3/6
f 267/1/6 268/1/6 295/1/6
f 295/1/6 268/1/6 296/1/6
f 293/2/6 294/2/6 297/2/6
f 294/3/6 270/3/6 298/3/6
f 297/2/6 294/2/6 298/2/6
f 297/3/6 298/3/6 301/3/6
f 298/3/6 270/3/6 302/3/6
f 301/3/6 298/3/6 302/3/6
f 289/3/6 290/3/6 303/3/6
f 281/3/6 289/3/6 303/3/6
f 303/3/6 290/3/6 304/3/6
f 299/3/6 300/3/6 305/3/6
f 301/2/6 302/2/6 308/2/6
f 302/3/6 270/3/6 309/3/6
f 308/2/6 302/2/6 309/2/6
f 303/2/6 304/2/6 310/2/6
f 281/3/6 303/3/6 310/3/6
f 310/2/6 304/2/6 311/2/6
f 305/3/6 300/3/6 312/3/6
f 306/3/6 307/3/6 313/3/6
f 313/3/6 307/3/6 314/3/6
f 308/3/6 309/3/6 315/3/6
f 309/3/6 270/3/6 316/3/6
f 315/3/6 309/3/6 316/3/6
f 271/3/6 281/3/6 317/3/6
f 310/3/6 311/3/6 317/3/6
f 281/3/6 310/3/6 317/3/6
f 317/3/6 311/3/6 318/3/6
f 312/3/6 300/3/6 319/3/6
f 319/3/6 300/3/6 320/3/6
f 321/3/6 322/3/6 325/3/6
f 325/3/6 322/3/6 326/3/6
f 323/3/6 324/3/6 327/3/6
f 327/3/6 324/3/6 328/3/6
f 328/3/6 324/3/6 329/3/6
f 329/3/6 324/3/6 330/3/6
f 321/3/6 325/3/6 331/3/6
f 325/2/6 326/2/6 331/2/6
f 326/3/6 322/3/6 332/3/6
f 331/2/6 326/2/6 332/2/6
f 323/3/6 327/3/6 333/3/6
f 327/5/6 328/5/6 333/5/6
f 333/5/6 328/5/6 334/5/6
f 328/3/6 329/3/6 335/3/6
f 334/5/6 328/5/6 335/5/6
f 329/5/6 330/5/6 336/5/6
f 335/3/6 329/3/6 336/3/6
f 334/5/6 335/5/6 337/5/6
f 335/5/6 336/5/6 337/5/6
f 337/5/6 336/5/6 338/5/6
f 336/5/6 330/5/6 339/5/6
f 338/5/6 336/5/6 339/5/6
f 330/3/6 324/3/6 340/3/6
f 339/5/6 330/5/6 340/5/6
f 321/3/6 331/3/6 341/3/6
f 331/3/6 332/3/6 341/3/6
f 332/3/6 322/3/6 342/3/6
f 341/3/6 332/3/6 342/3/6
f 321/3/6 341/3/6 343/3/6
f 341/2/6 342/2/6 343/2/6
f 342/3/6 322/3/6 344/3/6
f 343/2/6 342/2/6 344/2/6
f 333/3/6 334/3/6 345/3/6
f 323/3/6 333/3/6 345/3/6
f 334/5/6 337/5/6 346/5/6
f 345/3/6 334/3/6 346/3/6
f 337/1/6 338/1/6 347/1/6
f 346/5/6 337/5/6 347/5/6
f 338/5/6 339/5/6 348/5/6
f 347/1/6 338/1/6 348/1/6
f 346/5/6 347/5/6 349/5/6
f 345/5/6 346/5/6 349/5/6
f 347/5/6 348/5/6 349/5/6
f 348/5/6 339/5/6 350/5/6
f 349/5/6 348/5/6 350/5/6
f 339/3/6 340/3/6 351/3/6
f 350/5/6 339/5/6 351/5/6
f 340/3/6 324/3/6 352/3/6
f 351/3/6 340/3/6 352/3/6
f 321/3/6 343/3/6 353/3/6
f 343/3/6 344/3/6 353/3/6
f 344/3/6 322/3/6 354/3/6
f 353/3/6 344/3/6 354/3/6
f 345/5/6 349/5/6 355/5/6
f 323/3/6 345/3/6 355/3/6
f 349/3/6 350/3/6 356/3/6
f 355/5/6 349/5/6 356/5/6
f 350/5/6 351/5/6 357/5/6
f 356/3/6 350/3/6 357/3/6
f 351/5/6 352/5/6 357/5/6
f 352/3/6 324/3/6 358/3/6
f 357/5/6 352/5/6 358/5/6
f 353/2/6 354/2/6 359/2/6
f 321/3/6 353/3/6 359/3/6
f 359/2/6 354/2/6 360/2/6
f 355/3/6 356/3/6 361/3/6
f 357/3/6 358/3/6 361/3/6
f 356/3/6 357/3/6 361/3/6
f 323/3/6 355/3/6 361/3/6
f 358/3/6 324/3/6 362/3/6
f 361/3/6 358/3/6 362/3/6
f 361/2/6 362/2/6 363/2/6
f 362/3/6 324/3/6 364/3/6
f 363/2/6 362/2/6 364/2/6
f 359/3/6 360/3/6 365/3/6
f 365/3/6 360/3/6 366/3/6
f 363/3/6 364/3/6 367/3/6
f 364/3/6 324/3/6 368/3/6
f 367/3/6 364/3/6 368/3/6
f 365/2/6 366/2/6 369/2/6
f 359/3/6 365/3/6 369/3/6
f 369/2/6 366/2/6 370/2/6
f 367/2/6 368/2/6 371/2/6
f 368/3/6 324/3/6 372/3/6
f 371/2/6 368/2/6 372/2/6
f 371/3/6 372/3/6 373/3/6
f 372/3/6 324/3/6 374/3/6
f 373/3/6 372/3/6 374/3/6
f 369/3/6 370/3/6 375/3/6
f 359/3/6 369/3/6 375/3/6
f 375/3/6 370/3/6 376/3/6
f 373/2/6 374/2/6 377/2/6
f 371/3/6 373/3/6 377/3/6
f 374/3/6 324/3/6 378/3/6
f 377/2/6 374/2/6 378/2/6
f 375/2/6 376/2/6 379/2/6
f 359/3/6 375/3/6 379/3/6
f 379/2/6 376/2/6 380/2/6
f 371/3/6 377/3/6 381/3/6
f 377/3/6 378/3/6 381/3/6
f 378/3/6 324/3/6 382/3/6
f 381/3/6 378/3/6 382/3/6
f 371/3/6 381/3/6 383/3/6
f 381/2/6 382/2/6 383/2/6
f 382/3/6 324/3/6 384/3/6
f 383/2/6 382/2/6 384/2/6
f 384/3/6 324/3/6 385/3/6
f 379/3/6 380/3/6 386/3/6
f 359/3/6 379/3/6 386/3/6
f 386/3/6 380/3/6 387/3/6
f 371/3/6 383/3/6 388/3/6
f 383/3/6 384/3/6 388/3/6
f 388/3/6 384/3/6 389/3/6
f 321/3/6 359/3/6 390/3/6
f 359/3/6 386/3/6 390/3/6
f 390/3/6 386/3/6 391/3/6
f 386/2/6 387/2/6 392/2/6
f 391/3/6 386/3/6 392/3/6
f 392/2/6 387/2/6 393/2/6
f 388/2/6 389/2/6 394/2/6
f 394/2/6 389/2/6 395/2/6
f 392/3/6 393/3/6 396/3/6
f 391/3/6 392/3/6 396/3/6
f 396/3/6 393/3/6 397/3/6
f 394/3/6 395/3/6 398/3/6
f 398/3/6 395/3/6 399/3/6
