# MagicaVoxel @ Ephtracy

# group
o 

# material
mtllib GrassBook.mtl
usemtl palette

# normals
vn -1 0 0
vn 1 0 0
vn 0 0 1
vn 0 0 -1
vn 0 -1 0
vn 0 1 0

# texcoords
vt 0.583984 0.5
vt 0.837891 0.5
vt 0.908203 0.5
vt 0.958984 0.5
vt 0.966797 0.5

# verts
v -1.5 0.1 -0.5
v -1.5 0.1 -1
v -1.5 0.2 1
v -1.5 0.2 -0.5
v -1.5 0.2 -1
v -1.5 0.3 1
v -1.5 0.3 -0.5
v -1.4 0.2 -0.5
v -1.4 0.2 -0.8
v -1.4 0.2 -1
v -1.4 0.3 1
v -1.4 0.3 -0.5
v -1.4 0.3 -0.8
v -1.4 0.3 -1
v -1.4 0.4 1
v -1.4 0.4 -0.8
v -1.3 0.3 -0.8
v -1.3 0.3 -1
v -1.3 0.4 -0.8
v -1.3 0.4 -1
v -0.3 0.1 1
v -0.3 0.1 -1
v -0.3 0.2 1
v -0.3 0.2 -1
v -0.2 0 1
v -0.2 0 -1
v -0.2 0.1 1
v -0.2 0.1 -1
v 0 0.2 1
v 0 0.2 -1
v 0 0.3 1
v 0 0.3 -1
v 0.4 0.3 1
v 0.4 0.3 0.1
v 0.4 0.3 0
v 0.4 0.3 -0.1
v 0.4 0.3 -0.2
v 0.4 0.3 -0.7
v 0.4 0.3 -0.8
v 0.4 0.3 -1
v 0.4 0.4 1
v 0.4 0.4 0.1
v 0.4 0.4 0
v 0.4 0.4 -0.1
v 0.4 0.4 -0.2
v 0.4 0.4 -0.7
v 0.4 0.4 -0.8
v 0.4 0.4 -1
v 1.3 0.1 -0.6
v 1.3 0.1 -1
v 1.3 0.2 -0.6
v 1.3 0.2 -1
v 1.4 0.1 -0.3
v 1.4 0.1 -0.6
v 1.4 0.2 -0.3
v 1.4 0.2 -0.6
v -1.4 0.1 -0.5
v -1.4 0.1 -0.8
v -1.4 0.2 -0.5
v -1.4 0.2 -0.8
v -1.3 0.1 -0.8
v -1.3 0.1 -1
v -1.3 0.2 -0.8
v -1.3 0.2 -1
v -0.3 0.3 1
v -0.3 0.3 0.2
v -0.3 0.3 0.1
v -0.3 0.3 -0.1
v -0.3 0.3 -0.2
v -0.3 0.3 -0.4
v -0.3 0.3 -0.5
v -0.3 0.3 -0.7
v -0.3 0.3 -0.8
v -0.3 0.3 -1
v -0.3 0.4 1
v -0.3 0.4 0.2
v -0.3 0.4 0.1
v -0.3 0.4 -0.1
v -0.3 0.4 -0.2
v -0.3 0.4 -0.4
v -0.3 0.4 -0.5
v -0.3 0.4 -0.7
v -0.3 0.4 -0.8
v -0.3 0.4 -1
v -0.1 0.2 1
v -0.1 0.2 -1
v -0.1 0.3 1
v -0.1 0.3 -1
v 0.2 0 1
v 0.2 0 -1
v 0.2 0.1 1
v 0.2 0.1 -1
v 0.4 0.1 1
v 0.4 0.1 -1
v 0.4 0.2 1
v 0.4 0.2 -1
v 1.3 0.3 -0.6
v 1.3 0.3 -0.7
v 1.3 0.3 -0.8
v 1.3 0.3 -1
v 1.3 0.4 -0.6
v 1.3 0.4 -0.7
v 1.3 0.4 -0.8
v 1.3 0.4 -1
v 1.4 0.2 -0.3
v 1.4 0.2 -0.6
v 1.4 0.2 -1
v 1.4 0.3 1
v 1.4 0.3 -0.3
v 1.4 0.3 -0.6
v 1.4 0.3 -1
v 1.4 0.4 1
v 1.4 0.4 -0.6
v 1.5 0.1 -0.3
v 1.5 0.1 -1
v 1.5 0.2 1
v 1.5 0.2 -0.3
v 1.5 0.2 -1
v 1.5 0.3 1
v 1.5 0.3 -0.3
v -1.5 0.2 1
v -1.5 0.3 1
v -1.4 0.3 1
v -1.4 0.4 1
v -0.3 0.1 1
v -0.3 0.2 1
v -0.3 0.3 1
v -0.3 0.4 1
v -0.2 0 1
v -0.2 0.1 1
v -0.2 0.2 1
v -0.1 0.2 1
v -0.1 0.3 1
v 0 0.2 1
v 0 0.3 1
v 0.2 0 1
v 0.2 0.1 1
v 0.2 0.2 1
v 0.4 0.1 1
v 0.4 0.2 1
v 0.4 0.3 1
v 0.4 0.4 1
v 1.4 0.3 1
v 1.4 0.4 1
v 1.5 0.2 1
v 1.5 0.3 1
v 1.4 0.1 -0.3
v 1.4 0.2 -0.3
v 1.5 0.1 -0.3
v 1.5 0.2 -0.3
v -1.5 0.1 -0.5
v -1.5 0.2 -0.5
v -1.4 0.1 -0.5
v -1.4 0.2 -0.5
v 1.3 0.1 -0.6
v 1.3 0.2 -0.6
v 1.4 0.1 -0.6
v 1.4 0.2 -0.6
v -1.4 0.1 -0.8
v -1.4 0.2 -0.8
v -1.3 0.1 -0.8
v -1.3 0.2 -0.8
v 1.4 0.2 -0.3
v 1.4 0.3 -0.3
v 1.5 0.2 -0.3
v 1.5 0.3 -0.3
v -1.5 0.2 -0.5
v -1.5 0.3 -0.5
v -1.4 0.2 -0.5
v -1.4 0.3 -0.5
v 1.3 0.3 -0.6
v 1.3 0.4 -0.6
v 1.4 0.3 -0.6
v 1.4 0.4 -0.6
v -1.4 0.3 -0.8
v -1.4 0.4 -0.8
v -1.3 0.3 -0.8
v -1.3 0.4 -0.8
v -1.5 0.1 -1
v -1.5 0.2 -1
v -1.4 0.2 -1
v -1.4 0.3 -1
v -1.3 0.1 -1
v -1.3 0.2 -1
v -1.3 0.3 -1
v -1.3 0.4 -1
v -0.3 0.1 -1
v -0.3 0.2 -1
v -0.3 0.3 -1
v -0.3 0.4 -1
v -0.2 0 -1
v -0.2 0.1 -1
v -0.2 0.2 -1
v -0.1 0.2 -1
v -0.1 0.3 -1
v 0 0.2 -1
v 0 0.3 -1
v 0.2 0 -1
v 0.2 0.1 -1
v 0.2 0.2 -1
v 0.4 0.1 -1
v 0.4 0.2 -1
v 0.4 0.3 -1
v 0.4 0.4 -1
v 1.3 0.1 -1
v 1.3 0.2 -1
v 1.3 0.3 -1
v 1.3 0.4 -1
v 1.4 0.2 -1
v 1.4 0.3 -1
v 1.5 0.1 -1
v 1.5 0.2 -1
v -0.2 0 1
v 0.2 0 1
v -0.2 0 -1
v 0.2 0 -1
v -0.3 0.1 1
v -0.2 0.1 1
v 0.2 0.1 1
v 0.4 0.1 1
v 1.4 0.1 -0.3
v 1.5 0.1 -0.3
v -1.5 0.1 -0.5
v -1.4 0.1 -0.5
v 1.3 0.1 -0.6
v 1.4 0.1 -0.6
v -1.4 0.1 -0.8
v -1.3 0.1 -0.8
v -1.5 0.1 -1
v -1.3 0.1 -1
v -0.3 0.1 -1
v -0.2 0.1 -1
v 0.2 0.1 -1
v 0.4 0.1 -1
v 1.3 0.1 -1
v 1.5 0.1 -1
v -1.5 0.2 1
v -0.3 0.2 1
v 0.4 0.2 1
v 1.5 0.2 1
v 1.4 0.2 -0.3
v 1.5 0.2 -0.3
v -1.5 0.2 -0.5
v -1.4 0.2 -0.5
v 1.3 0.2 -0.6
v 1.4 0.2 -0.6
v -1.4 0.2 -0.8
v -1.3 0.2 -0.8
v -1.3 0.2 -1
v -0.3 0.2 -1
v 0.4 0.2 -1
v 1.3 0.2 -1
v -0.1 0.2 1
v 0 0.2 1
v 1.4 0.2 -0.3
v 1.5 0.2 -0.3
v -1.5 0.2 -0.5
v -1.4 0.2 -0.5
v 1.4 0.2 -0.6
v -1.4 0.2 -0.8
v -1.5 0.2 -1
v -1.4 0.2 -1
v -0.1 0.2 -1
v 0 0.2 -1
v 1.4 0.2 -1
v 1.5 0.2 -1
v -1.5 0.3 1
v -1.4 0.3 1
v -0.3 0.3 1
v -0.1 0.3 1
v 0 0.3 1
v 0.4 0.3 1
v 1.4 0.3 1
v 1.5 0.3 1
v -0.3 0.3 0.2
v -0.2 0.3 0.2
v -0.3 0.3 0.1
v -0.2 0.3 0.1
v 0.1 0.3 0.1
v 0.4 0.3 0.1
v 0.1 0.3 0
v 0.4 0.3 0
v -0.3 0.3 -0.1
v -0.2 0.3 -0.1
v 0.3 0.3 -0.1
v 0.4 0.3 -0.1
v -0.3 0.3 -0.2
v -0.2 0.3 -0.2
v 0.3 0.3 -0.2
v 0.4 0.3 -0.2
v 1.4 0.3 -0.3
v 1.5 0.3 -0.3
v -0.3 0.3 -0.4
v -0.2 0.3 -0.4
v -1.5 0.3 -0.5
v -1.4 0.3 -0.5
v -0.3 0.3 -0.5
v -0.2 0.3 -0.5
v 1.3 0.3 -0.6
v 1.4 0.3 -0.6
v -0.3 0.3 -0.7
v -0.2 0.3 -0.7
v 0.3 0.3 -0.7
v 0.4 0.3 -0.7
v 1.3 0.3 -0.7
v -1.4 0.3 -0.8
v -1.3 0.3 -0.8
v -0.3 0.3 -0.8
v -0.2 0.3 -0.8
v 0.3 0.3 -0.8
v 0.4 0.3 -0.8
v 1.3 0.3 -0.8
v -1.4 0.3 -1
v -1.3 0.3 -1
v -0.3 0.3 -1
v -0.1 0.3 -1
v 0 0.3 -1
v 0.4 0.3 -1
v 1.3 0.3 -1
v 1.4 0.3 -1
v -1.4 0.4 1
v -0.3 0.4 1
v 0.4 0.4 1
v 1.4 0.4 1
v -1.3 0.4 0.8
v -0.9 0.4 0.8
v 0.6 0.4 0.8
v 0.8 0.4 0.8
v 0.9 0.4 0.8
v 1.1 0.4 0.8
v -1.3 0.4 0.7
v -0.9 0.4 0.7
v 0.5 0.4 0.7
v 0.6 0.4 0.7
v 0.8 0.4 0.7
v 0.9 0.4 0.7
v 1.1 0.4 0.7
v 1.2 0.4 0.7
v 0.5 0.4 0.6
v 0.7 0.4 0.6
v 1 0.4 0.6
v 1.2 0.4 0.6
v -1.3 0.4 0.5
v -0.7 0.4 0.5
v 0.7 0.4 0.5
v 0.8 0.4 0.5
v 0.9 0.4 0.5
v 1 0.4 0.5
v -1.3 0.4 0.4
v -0.7 0.4 0.4
v -1.3 0.4 0.2
v -0.3 0.4 0.2
v 0.8 0.4 0.2
v 0.9 0.4 0.2
v -1.3 0.4 0.1
v -0.3 0.4 0.1
v 0.4 0.4 0.1
v 1.3 0.4 0.1
v 0.4 0.4 0
v 1.3 0.4 0
v -0.6 0.4 -0.1
v -0.3 0.4 -0.1
v 0.4 0.4 -0.1
v 1.3 0.4 -0.1
v -0.6 0.4 -0.2
v -0.3 0.4 -0.2
v 0.4 0.4 -0.2
v 1.3 0.4 -0.2
v 0.7 0.4 -0.3
v 1.3 0.4 -0.3
v -0.9 0.4 -0.4
v -0.3 0.4 -0.4
v 0.7 0.4 -0.4
v 1.3 0.4 -0.4
v -0.9 0.4 -0.5
v -0.3 0.4 -0.5
v 0.5 0.4 -0.5
v 1.3 0.4 -0.5
v 0.5 0.4 -0.6
v 1.3 0.4 -0.6
v 1.4 0.4 -0.6
v -1.2 0.4 -0.7
v -0.3 0.4 -0.7
v 0.4 0.4 -0.7
v 1.3 0.4 -0.7
v -1.4 0.4 -0.8
v -1.3 0.4 -0.8
v -1.2 0.4 -0.8
v -0.3 0.4 -0.8
v 0.4 0.4 -0.8
v 1.3 0.4 -0.8
v -1.3 0.4 -1
v -0.3 0.4 -1
v 0.4 0.4 -1
v 1.3 0.4 -1

# faces
f 4/1/1 2/1/1 1/1/1
f 5/1/1 2/1/1 4/1/1
f 6/1/1 4/1/1 3/1/1
f 7/1/1 4/1/1 6/1/1
f 12/1/1 9/1/1 8/1/1
f 13/4/1 10/4/1 9/4/1
f 13/1/1 9/1/1 12/1/1
f 14/4/1 10/4/1 13/4/1
f 15/4/1 12/4/1 11/4/1
f 15/4/1 13/4/1 12/4/1
f 16/4/1 13/4/1 15/4/1
f 19/4/1 18/4/1 17/4/1
f 20/4/1 18/4/1 19/4/1
f 23/1/1 22/1/1 21/1/1
f 24/1/1 22/1/1 23/1/1
f 27/1/1 26/1/1 25/1/1
f 28/1/1 26/1/1 27/1/1
f 31/4/1 30/4/1 29/4/1
f 32/4/1 30/4/1 31/4/1
f 41/4/1 34/4/1 33/4/1
f 42/2/1 35/2/1 34/2/1
f 42/4/1 34/4/1 41/4/1
f 43/4/1 36/4/1 35/4/1
f 43/2/1 35/2/1 42/2/1
f 44/2/1 37/2/1 36/2/1
f 44/4/1 36/4/1 43/4/1
f 45/4/1 38/4/1 37/4/1
f 45/2/1 37/2/1 44/2/1
f 46/2/1 39/2/1 38/2/1
f 46/4/1 38/4/1 45/4/1
f 47/4/1 40/4/1 39/4/1
f 47/2/1 39/2/1 46/2/1
f 48/4/1 40/4/1 47/4/1
f 51/1/1 50/1/1 49/1/1
f 52/1/1 50/1/1 51/1/1
f 55/1/1 54/1/1 53/1/1
f 56/1/1 54/1/1 55/1/1
f 57/1/2 58/1/2 59/1/2
f 59/1/2 58/1/2 60/1/2
f 61/1/2 62/1/2 63/1/2
f 63/1/2 62/1/2 64/1/2
f 65/4/2 66/4/2 75/4/2
f 66/2/2 67/2/2 76/2/2
f 75/4/2 66/4/2 76/4/2
f 67/4/2 68/4/2 77/4/2
f 76/2/2 67/2/2 77/2/2
f 68/2/2 69/2/2 78/2/2
f 77/4/2 68/4/2 78/4/2
f 69/4/2 70/4/2 79/4/2
f 78/2/2 69/2/2 79/2/2
f 70/2/2 71/2/2 80/2/2
f 79/4/2 70/4/2 80/4/2
f 71/4/2 72/4/2 81/4/2
f 80/2/2 71/2/2 81/2/2
f 72/2/2 73/2/2 82/2/2
f 81/4/2 72/4/2 82/4/2
f 73/4/2 74/4/2 83/4/2
f 82/2/2 73/2/2 83/2/2
f 83/4/2 74/4/2 84/4/2
f 85/4/2 86/4/2 87/4/2
f 87/4/2 86/4/2 88/4/2
f 89/1/2 90/1/2 91/1/2
f 91/1/2 90/1/2 92/1/2
f 93/1/2 94/1/2 95/1/2
f 95/1/2 94/1/2 96/1/2
f 97/4/2 98/4/2 101/4/2
f 98/2/2 99/2/2 102/2/2
f 101/4/2 98/4/2 102/4/2
f 99/4/2 100/4/2 103/4/2
f 102/2/2 99/2/2 103/2/2
f 103/4/2 100/4/2 104/4/2
f 105/1/2 106/1/2 109/1/2
f 106/4/2 107/4/2 110/4/2
f 109/1/2 106/1/2 110/1/2
f 110/4/2 107/4/2 111/4/2
f 108/4/2 109/4/2 112/4/2
f 109/4/2 110/4/2 112/4/2
f 112/4/2 110/4/2 113/4/2
f 114/1/2 115/1/2 117/1/2
f 117/1/2 115/1/2 118/1/2
f 116/1/2 117/1/2 119/1/2
f 119/1/2 117/1/2 120/1/2
f 123/1/3 122/1/3 121/1/3
f 126/1/3 123/1/3 121/1/3
f 127/4/3 124/4/3 123/4/3
f 127/1/3 123/1/3 126/1/3
f 128/4/3 124/4/3 127/4/3
f 130/1/3 126/1/3 125/1/3
f 131/4/3 127/4/3 126/4/3
f 131/1/3 126/1/3 130/1/3
f 132/5/3 131/5/3 130/5/3
f 132/4/3 127/4/3 131/4/3
f 133/4/3 127/4/3 132/4/3
f 134/5/3 132/5/3 130/5/3
f 136/1/3 130/1/3 129/1/3
f 137/5/3 134/5/3 130/5/3
f 137/1/3 130/1/3 136/1/3
f 138/4/3 135/4/3 134/4/3
f 138/5/3 134/5/3 137/5/3
f 139/1/3 138/1/3 137/1/3
f 140/4/3 135/4/3 138/4/3
f 140/1/3 138/1/3 139/1/3
f 141/4/3 135/4/3 140/4/3
f 143/1/3 141/1/3 140/1/3
f 143/4/3 142/4/3 141/4/3
f 144/4/3 142/4/3 143/4/3
f 145/1/3 143/1/3 140/1/3
f 146/1/3 143/1/3 145/1/3
f 149/1/3 148/1/3 147/1/3
f 150/1/3 148/1/3 149/1/3
f 153/1/3 152/1/3 151/1/3
f 154/1/3 152/1/3 153/1/3
f 157/1/3 156/1/3 155/1/3
f 158/1/3 156/1/3 157/1/3
f 161/1/3 160/1/3 159/1/3
f 162/1/3 160/1/3 161/1/3
f 163/1/4 164/1/4 165/1/4
f 165/1/4 164/1/4 166/1/4
f 167/1/4 168/1/4 169/1/4
f 169/1/4 168/1/4 170/1/4
f 171/4/4 172/4/4 173/4/4
f 173/4/4 172/4/4 174/4/4
f 175/4/4 176/4/4 177/4/4
f 177/4/4 176/4/4 178/4/4
f 179/1/4 180/1/4 181/1/4
f 179/1/4 181/1/4 183/1/4
f 181/4/4 182/4/4 184/4/4
f 183/1/4 181/1/4 184/1/4
f 184/4/4 182/4/4 185/4/4
f 184/1/4 185/1/4 188/1/4
f 185/4/4 186/4/4 189/4/4
f 188/1/4 185/1/4 189/1/4
f 189/4/4 186/4/4 190/4/4
f 187/1/4 188/1/4 192/1/4
f 188/4/4 189/4/4 193/4/4
f 192/1/4 188/1/4 193/1/4
f 192/5/4 193/5/4 194/5/4
f 193/4/4 189/4/4 194/4/4
f 194/4/4 189/4/4 195/4/4
f 192/5/4 194/5/4 196/5/4
f 191/1/4 192/1/4 198/1/4
f 192/5/4 196/5/4 199/5/4
f 198/1/4 192/1/4 199/1/4
f 196/4/4 197/4/4 200/4/4
f 199/5/4 196/5/4 200/5/4
f 199/1/4 200/1/4 201/1/4
f 200/4/4 197/4/4 202/4/4
f 201/1/4 200/1/4 202/1/4
f 202/4/4 197/4/4 203/4/4
f 202/1/4 203/1/4 206/1/4
f 203/4/4 204/4/4 207/4/4
f 206/1/4 203/1/4 207/1/4
f 207/4/4 204/4/4 208/4/4
f 205/1/4 206/1/4 209/1/4
f 206/4/4 207/4/4 209/4/4
f 209/4/4 207/4/4 210/4/4
f 205/1/4 209/1/4 211/1/4
f 211/1/4 209/1/4 212/1/4
f 215/1/5 214/1/5 213/1/5
f 216/1/5 214/1/5 215/1/5
f 226/1/5 222/1/5 221/1/5
f 227/1/5 224/1/5 223/1/5
f 229/1/5 227/1/5 223/1/5
f 229/1/5 228/1/5 227/1/5
f 230/1/5 228/1/5 229/1/5
f 231/1/5 218/1/5 217/1/5
f 232/1/5 218/1/5 231/1/5
f 233/1/5 220/1/5 219/1/5
f 234/1/5 220/1/5 233/1/5
f 235/1/5 226/1/5 225/1/5
f 236/1/5 222/1/5 226/1/5
f 236/1/5 226/1/5 235/1/5
f 241/1/5 240/1/5 239/1/5
f 242/1/5 240/1/5 241/1/5
f 243/1/5 238/1/5 237/1/5
f 244/1/5 238/1/5 243/1/5
f 245/1/5 241/1/5 239/1/5
f 246/1/5 241/1/5 245/1/5
f 247/1/5 238/1/5 244/1/5
f 248/1/5 238/1/5 247/1/5
f 249/1/5 238/1/5 248/1/5
f 250/1/5 238/1/5 249/1/5
f 251/1/5 245/1/5 239/1/5
f 252/1/5 245/1/5 251/1/5
f 255/1/6 256/1/6 259/1/6
f 257/1/6 258/1/6 260/1/6
f 257/1/6 260/1/6 261/1/6
f 261/1/6 260/1/6 262/1/6
f 253/5/6 254/5/6 263/5/6
f 263/5/6 254/5/6 264/5/6
f 259/1/6 256/1/6 265/1/6
f 265/1/6 256/1/6 266/1/6
f 269/4/6 270/4/6 275/4/6
f 275/4/6 270/4/6 276/4/6
f 275/2/6 276/2/6 277/2/6
f 276/4/6 270/4/6 278/4/6
f 277/2/6 276/2/6 278/2/6
f 271/4/6 272/4/6 279/4/6
f 279/4/6 272/4/6 280/4/6
f 271/4/6 279/4/6 281/4/6
f 279/2/6 280/2/6 281/2/6
f 281/2/6 280/2/6 282/2/6
f 277/4/6 278/4/6 283/4/6
f 278/4/6 270/4/6 284/4/6
f 283/4/6 278/4/6 284/4/6
f 281/4/6 282/4/6 285/4/6
f 285/4/6 282/4/6 286/4/6
f 283/2/6 284/2/6 287/2/6
f 284/4/6 270/4/6 288/4/6
f 287/2/6 284/2/6 288/2/6
f 281/4/6 285/4/6 289/4/6
f 285/2/6 286/2/6 289/2/6
f 289/2/6 286/2/6 290/2/6
f 273/1/6 274/1/6 291/1/6
f 291/1/6 274/1/6 292/1/6
f 287/4/6 288/4/6 293/4/6
f 288/4/6 270/4/6 294/4/6
f 293/4/6 288/4/6 294/4/6
f 267/1/6 268/1/6 295/1/6
f 295/1/6 268/1/6 296/1/6
f 293/2/6 294/2/6 297/2/6
f 294/4/6 270/4/6 298/4/6
f 297/2/6 294/2/6 298/2/6
f 297/4/6 298/4/6 301/4/6
f 298/4/6 270/4/6 302/4/6
f 301/4/6 298/4/6 302/4/6
f 289/4/6 290/4/6 303/4/6
f 281/4/6 289/4/6 303/4/6
f 303/4/6 290/4/6 304/4/6
f 299/4/6 300/4/6 305/4/6
f 301/2/6 302/2/6 308/2/6
f 302/4/6 270/4/6 309/4/6
f 308/2/6 302/2/6 309/2/6
f 303/2/6 304/2/6 310/2/6
f 281/4/6 303/4/6 310/4/6
f 310/2/6 304/2/6 311/2/6
f 305/4/6 300/4/6 312/4/6
f 306/4/6 307/4/6 313/4/6
f 313/4/6 307/4/6 314/4/6
f 308/4/6 309/4/6 315/4/6
f 309/4/6 270/4/6 316/4/6
f 315/4/6 309/4/6 316/4/6
f 271/4/6 281/4/6 317/4/6
f 310/4/6 311/4/6 317/4/6
f 281/4/6 310/4/6 317/4/6
f 317/4/6 311/4/6 318/4/6
f 312/4/6 300/4/6 319/4/6
f 319/4/6 300/4/6 320/4/6
f 321/4/6 322/4/6 325/4/6
f 325/4/6 322/4/6 326/4/6
f 323/4/6 324/4/6 327/4/6
f 327/4/6 324/4/6 328/4/6
f 328/4/6 324/4/6 329/4/6
f 329/4/6 324/4/6 330/4/6
f 321/4/6 325/4/6 331/4/6
f 325/2/6 326/2/6 331/2/6
f 326/4/6 322/4/6 332/4/6
f 331/2/6 326/2/6 332/2/6
f 323/4/6 327/4/6 333/4/6
f 327/3/6 328/3/6 334/3/6
f 333/4/6 327/4/6 334/4/6
f 328/4/6 329/4/6 335/4/6
f 334/3/6 328/3/6 335/3/6
f 329/3/6 330/3/6 336/3/6
f 335/4/6 329/4/6 336/4/6
f 330/4/6 324/4/6 337/4/6
f 336/3/6 330/3/6 337/3/6
f 337/4/6 324/4/6 338/4/6
f 335/3/6 336/3/6 339/3/6
f 334/3/6 335/3/6 339/3/6
f 337/3/6 338/3/6 339/3/6
f 336/3/6 337/3/6 339/3/6
f 323/4/6 333/4/6 339/4/6
f 333/3/6 334/3/6 339/3/6
f 339/3/6 338/3/6 340/3/6
f 340/3/6 338/3/6 341/3/6
f 338/4/6 324/4/6 342/4/6
f 341/3/6 338/3/6 342/3/6
f 321/4/6 331/4/6 343/4/6
f 331/4/6 332/4/6 343/4/6
f 332/4/6 322/4/6 344/4/6
f 343/4/6 332/4/6 344/4/6
f 340/3/6 341/3/6 345/3/6
f 339/4/6 340/4/6 345/4/6
f 345/3/6 341/3/6 346/3/6
f 346/3/6 341/3/6 347/3/6
f 341/4/6 342/4/6 348/4/6
f 347/3/6 341/3/6 348/3/6
f 321/4/6 343/4/6 349/4/6
f 343/2/6 344/2/6 349/2/6
f 344/4/6 322/4/6 350/4/6
f 349/2/6 344/2/6 350/2/6
f 321/4/6 349/4/6 351/4/6
f 349/4/6 350/4/6 351/4/6
f 350/4/6 322/4/6 352/4/6
f 351/4/6 350/4/6 352/4/6
f 346/3/6 347/3/6 353/3/6
f 345/4/6 346/4/6 353/4/6
f 347/4/6 348/4/6 354/4/6
f 353/3/6 347/3/6 354/3/6
f 321/4/6 351/4/6 355/4/6
f 351/2/6 352/2/6 355/2/6
f 355/2/6 352/2/6 356/2/6
f 353/4/6 354/4/6 357/4/6
f 323/4/6 339/4/6 357/4/6
f 345/4/6 353/4/6 357/4/6
f 339/4/6 345/4/6 357/4/6
f 342/4/6 324/4/6 358/4/6
f 357/4/6 354/4/6 358/4/6
f 354/4/6 348/4/6 358/4/6
f 348/4/6 342/4/6 358/4/6
f 357/2/6 358/2/6 359/2/6
f 358/4/6 324/4/6 360/4/6
f 359/2/6 358/2/6 360/2/6
f 355/4/6 356/4/6 361/4/6
f 361/4/6 356/4/6 362/4/6
f 359/4/6 360/4/6 363/4/6
f 360/4/6 324/4/6 364/4/6
f 363/4/6 360/4/6 364/4/6
f 361/2/6 362/2/6 365/2/6
f 355/4/6 361/4/6 365/4/6
f 365/2/6 362/2/6 366/2/6
f 363/2/6 364/2/6 367/2/6
f 364/4/6 324/4/6 368/4/6
f 367/2/6 364/2/6 368/2/6
f 367/4/6 368/4/6 369/4/6
f 368/4/6 324/4/6 370/4/6
f 369/4/6 368/4/6 370/4/6
f 365/4/6 366/4/6 371/4/6
f 355/4/6 365/4/6 371/4/6
f 371/4/6 366/4/6 372/4/6
f 369/2/6 370/2/6 373/2/6
f 367/4/6 369/4/6 373/4/6
f 370/4/6 324/4/6 374/4/6
f 373/2/6 370/2/6 374/2/6
f 371/2/6 372/2/6 375/2/6
f 355/4/6 371/4/6 375/4/6
f 375/2/6 372/2/6 376/2/6
f 367/4/6 373/4/6 377/4/6
f 373/4/6 374/4/6 377/4/6
f 374/4/6 324/4/6 378/4/6
f 377/4/6 374/4/6 378/4/6
f 367/4/6 377/4/6 379/4/6
f 377/2/6 378/2/6 379/2/6
f 378/4/6 324/4/6 380/4/6
f 379/2/6 378/2/6 380/2/6
f 380/4/6 324/4/6 381/4/6
f 375/4/6 376/4/6 382/4/6
f 355/4/6 375/4/6 382/4/6
f 382/4/6 376/4/6 383/4/6
f 367/4/6 379/4/6 384/4/6
f 379/4/6 380/4/6 384/4/6
f 384/4/6 380/4/6 385/4/6
f 321/4/6 355/4/6 386/4/6
f 355/4/6 382/4/6 386/4/6
f 386/4/6 382/4/6 387/4/6
f 382/2/6 383/2/6 388/2/6
f 387/4/6 382/4/6 388/4/6
f 388/2/6 383/2/6 389/2/6
f 384/2/6 385/2/6 390/2/6
f 390/2/6 385/2/6 391/2/6
f 388/4/6 389/4/6 392/4/6
f 387/4/6 388/4/6 392/4/6
f 392/4/6 389/4/6 393/4/6
f 390/4/6 391/4/6 394/4/6
f 394/4/6 391/4/6 395/4/6
